<?xml version="1.0" encoding="utf-8"?>
<!-- Generator: Adobe Illustrator 21.0.0, SVG Export Plug-In . SVG Version: 6.00 Build 0)  -->
<svg version="1.1" id="Layer_1" xmlns="http://www.w3.org/2000/svg" xmlns:xlink="http://www.w3.org/1999/xlink" x="0px" y="0px"
	 viewBox="0 0 200 100" style="enable-background:new 0 0 200 100;" xml:space="preserve">
<style type="text/css">
	.Drop_x0020_Shadow{fill:none;}
	.Outer_x0020_Glow_x0020_5_x0020_pt{fill:none;}
	.Blue_x0020_Neon{fill:none;stroke:#8AACDA;stroke-width:7;stroke-linecap:round;stroke-linejoin:round;}
	.Chrome_x0020_Highlight{fill:url(#SVGID_1_);stroke:#FFFFFF;stroke-width:0.3629;stroke-miterlimit:1;}
	.Jive_GS{fill:#FFDD00;}
	.Alyssa_GS{fill:#A6D0E4;}
	.st0{fill:#231F20;}
</style>
<linearGradient id="SVGID_1_" gradientUnits="userSpaceOnUse" x1="0" y1="-8141.5" x2="6.123234e-17" y2="-8142.5">
	<stop  offset="0" style="stop-color:#656565"/>
	<stop  offset="0.618" style="stop-color:#1B1B1B"/>
	<stop  offset="0.6292" style="stop-color:#545454"/>
	<stop  offset="0.9831" style="stop-color:#3E3E3E"/>
</linearGradient>
<g>
	<path class="st0" d="M33.1,42.5c0.4,0.2,1.7,0.1,4.1-0.1c1.5-0.1,3.3-0.3,4.8-0.3c0.3,0,0.5-0.2,0.6-0.4c0.2-0.6-0.1-1.7-0.4-2.1
		c-0.2-0.2-1.5-0.3-12.9-0.1c-2.1,0-3.7,0.1-4,0.1c-0.1,0-7.7,0-9,1.3C16,41,16,41.2,16,41.3c-0.1,0.2-0.2,0.5-0.1,0.9
		c0.1,0.2,0.3,0.4,0.8,0.5c0.6,0.1,2.7-0.1,5-0.4c0.5-0.1,1-0.1,1.3-0.1c0.1,0.7-0.1,3.5-0.2,4.6c0,0.6-0.1,1-0.1,1.1
		c0,0.6,0.4,0.7,0.6,0.7c0.1,0,0.2,0,0.2,0.1c0.2,0.3,0.2,2,0.1,2.6c-0.4,0.1-2,0.1-2.8,0c-1.2,0-1.6,0-1.7,0
		c-0.5,0.2-0.7,1.1-0.7,1.5c0,0.5,0.2,0.7,0.3,0.8c0.2,0.1,0.8,0.1,2.6-0.1c0.9-0.1,2.1-0.2,2.4-0.2c0.2,1-0.1,7.5-0.3,8.6
		c-0.5,0-1.9-0.2-2.9-0.4c-2.4-0.4-2.9-0.4-3.1-0.3c-0.2,0.1-0.4,0.4-0.4,0.8c0,0.4,0,1,0.3,1.2c0.1,0.1,0.3,0.3,10.5,0.9
		c5.5,0.3,8.1,0.4,9.3,0.4c1.1,0,1.2-0.1,1.2-0.1c0.2-0.1,1-0.2,1.6-0.3c1.3-0.1,1.9-0.2,2.1-0.5c0.2-0.2,0.3-0.5,0.3-1
		c0-0.5-0.1-1.2-0.4-1.5c-0.5-0.5-8.2,0.2-8.2,0.3c-0.3,0.2-0.4,0.4-0.4,0.6c-0.9,0.1-6.3,0.1-7.4,0c-0.3-1-0.3-7.5-0.1-8.6
		c0.2,0,0.6,0,1.2-0.1c1.6-0.1,5.9-0.5,6.4-0.3c0.8,0.6,6-0.1,6.3-0.3c0.3-0.1,0.5-0.4,0.5-0.8c0-0.5-0.2-1-0.6-1.3
		c-0.6-0.4-5.5,0-6.2,0.3l0,0c-0.7,0.2-6.6,0.5-7.4,0.2c-0.3-0.9,0.1-8.6,0.4-9.2c0.4-0.2,3.7-0.3,6.5-0.1
		C32.8,42,32.8,42.3,33.1,42.5z"/>
	<path class="st0" d="M172.7,52.8c0.7,0.6,1.9,0.6,2.6-0.1c0.5-0.5,0.7-1.3,0.5-2.1c-0.2-0.6-0.6-1.1-1.1-1.2
		c-3.4-0.9-8.8,0.7-11.7,2.8c-0.8,0.6-1.8,1.4-1.9,2.3c-0.3,2.9,3.5,3.7,6.5,4.3c1.9,0.4,3.8,0.8,3.9,1.5c0.1,0.7-0.7,1.7-2.1,2.4
		c-1.4,0.8-3.3,1.2-4.2,0.5c0-0.1,0-0.2,0-0.2c0-0.3,0.1-0.9-0.3-1.2c-0.4-0.4-1.1-0.4-1.4-0.4c-0.6,0-1.4,0.2-1.8,0.6l0,0.1
		c0,0.1-0.7,1.3-0.1,2.3c0.7,1.1,2.3,1.7,3.4,1.7c0,0,0,0,0,0c2.3,0,9.2-2.4,9.6-6c0.2-2.5-3.3-3.1-6.4-3.7
		c-1.8-0.3-3.7-0.7-4.1-1.3c-0.1-0.1-0.1-0.2-0.1-0.4c0-0.1,0.2-0.5,1-1c1.9-1.2,5.4-2.3,7.6-1.9c0,0,0,0,0,0.1
		C172.5,51.9,172.3,52.4,172.7,52.8z"/>
	<path class="st0" d="M123,48c0.1,0,0.2,0,0.3,0c0.3,0,0.7-0.1,1.1-0.5c0.7-0.7,0.4-1.7-0.2-2.4c-0.7-0.7-1.6-0.8-2.2-0.2
		c-0.4,0.3-0.5,0.9-0.3,1.6C121.9,47.1,122.4,47.8,123,48z"/>
	<path class="st0" d="M99.6,59.1c-0.5-0.3-1-0.3-1.5-0.2c-0.5,0.1-1.2,0.4-1.5,0.8c-0.2,0.3-0.7,1-0.4,2.5c-0.2,0-0.5,0-0.8,0
		c-0.2,0-0.4,0-0.6-0.2C94,61.2,94,58.2,94,57.2l0-0.3c0-3.4,0.3-5.1,0.5-6.2c0.2-0.9,0.3-1.5,0-2.3c-0.1-0.3-0.3-0.5-0.7-0.5
		c-0.4-0.1-1,0-1.2,0.4c-0.3,0.5-0.5,1.4-0.8,2.7c-0.2,1.2-0.5,2.7-1,4.1c0,0.1-0.1,0.3-0.2,0.6c-1.9,6.3-2.7,6.4-2.8,6.4
		c-0.4-0.1-0.5-1.3-0.4-3.6c0-0.6,0-0.9,0-1.1c0-0.3,0.1-2.3,0.3-4c0.2-2.8,0.3-4.1,0.3-4.4c-0.1-0.5-0.9-1-1.5-1.1
		c-0.5-0.1-0.7,0.2-0.8,0.3c-0.2,0.3-0.5,2.9-1.1,7.9c-0.2,1.3-0.3,2.3-0.3,2.6c-0.1,0.6-1.5,2.9-2.8,2.8c-0.4-0.1-1-0.5-1.4-1.3
		c-0.1-0.4-0.4-3.5-0.3-3.9c0.4-1.4,0.5-2.2,0.6-3c0.1-0.5,0.1-0.9,0.3-1.4c0,0,0,0,0,0c0.6-0.2,1-0.6,0.9-2.3
		c0-0.4-0.8-2.1-2.2-3.3c-1.3-1.1-2.7-1.5-4.3-1.4c-3.2,0.3-5.5,2.4-7,6c-0.3,0.7-1.5,5.2-1.2,7.4c0,0.5-1.7,3.7-3.6,3.8
		c-0.6,0.1-1.5-0.3-2.1-0.9c-0.6-0.5-0.9-1-1-1.5c0.1,0,0.2,0,0.3,0c0.5,0,1.2-0.1,1.6-0.6c1.4-1.4,2.1-3.2,2.6-4.7
		c0.1-0.5,0.5-2.6-0.1-4c-0.2-0.6-1.3-1.7-2.9-1.2c-1.3,0.4-2.5,1.1-3.8,2.4c-0.4,0.4-1,1.6-1.6,2.7c-0.2,0.5-0.5,1-0.7,1.4
		c-0.1-0.5-0.1-1.2,0-1.4c0.9-1.1,3.3-6.1,3.5-6.7c1.1-3.4,2-6.5,2.3-8.9c0.3-1.9,0.1-5.6-0.7-5.9c-0.5-0.2-1.2-0.1-1.8,0
		c-0.2,0-0.3,0.1-0.4,0.1c-1,0.1-3.8,8.1-4.2,11.1c-0.7,5.6-1.5,12.4-1.7,12.9c-0.2,0.8-1.8,4.3-2.5,5c-0.3-0.8-0.6-3.2-0.7-4.2
		c-0.1-0.5-0.1-0.9-0.1-1c0-0.3-0.1-1.7-0.2-3.1c-0.2-3.1-0.3-4.3-0.4-4.5c-0.1-0.3-0.5-0.6-0.9-0.7c-0.5-0.1-1.1,0.1-1.4,0.4
		c-0.2,0.2-0.3,0.6-0.7,1.7c-0.2,0.5-0.4,1.1-0.5,1.4c-0.1,0.2-0.2,0.6-0.3,1c-0.1,0.5-0.3,1.1-0.5,1.6c0-1,0.1-2.5,0.1-2.9
		c0-0.1,0-0.2,0-0.4c0.2-1.6,0.3-2.6,0.1-3c-0.2-0.4-0.7-0.5-1-0.6c-0.1,0-0.2,0-0.3-0.1c-0.1,0-0.4-0.1-0.6,0.2
		C43,48,42.7,48.7,42.9,49l0,0c0,2.5,0,5.1-0.2,5.5c-0.5,0.6-0.2,3-0.1,3.5c0,0.2,0.1,0.3,0.1,0.4c0.1,0.3,0.2,0.6,0.3,1.6
		c0,0.2,0,0.5,0,0.9c0,1.3,0,2.2,0.3,2.5c0.3,0.3,0.6,0.4,0.9,0.3c0.4-0.1,0.6-0.6,0.7-0.9c0-0.1,0.1-0.4,0.2-0.7
		c0.7-2.5,1.1-4.1,1.1-4.5c0-0.4,0.6-2.7,1-3.7c0.1,0.5,0.2,1.3,0.3,2.1c0.8,6.5,1.4,9.7,2.7,9.8c0,0,0,0,0,0c0.4,0,1-0.7,3.3-4.3
		c0.1-0.1,0.1-0.2,0.2-0.3c0.2,1.6,0.7,4.3,1,4.6c0.2,0.3,0.5,0.5,0.9,0.5c0,0,0.1,0,0.1,0c0.3,0,0.6-0.3,0.8-0.6
		c0.3-0.6,0.2-2.3,0.1-3.2c0-0.4,0.2-1.7,0.3-2.5c0.8,1.5,3,4.6,5.6,5.5c0.9,0.3,2,0.2,2.7-0.2c1.8-1.1,2.5-3.1,2.9-4.3
		c1.3,3.4,2.8,4.9,4.9,4.9c2.8-0.1,4.4-2.8,5-4c0.4,0.8,1.2,2.1,2.1,2.8c0.5,0.4,0.9,0.6,1.3,0.5c1.7-0.3,3.1-2.2,3.9-3.4
		c0.1-0.1,0.1-0.2,0.2-0.3c0,0,0,0.1,0,0.1c0.1,1.3,0.4,3.7,2.1,3.7c0,0,0,0,0,0c1.9,0,3.2-3.7,3.9-5.7c0,0,0,0,0,0c0.3,2,1,6,3.7,6
		c0,0,0.1,0,0.1,0c2.2-0.1,3.3-2.4,3.8-3.4C99.9,61.1,100.4,59.7,99.6,59.1z M78.5,49.8c-0.4,0.4-0.5,1.7-0.5,1.7c0,1,0,3.7-0.5,6.8
		c-0.1,0.3-1.8,4.6-4.1,4.6c-1.8,0-3.3-4.1-3.3-4.9c-0.1-2.6,0.3-5.4,1-6.8c1-2,3.2-3.2,4.4-3.2c0,0,0.1,0,0.1,0
		C77.3,48.2,78.2,49.2,78.5,49.8z M63.1,52.6c0.1,0.3-0.3,1.5-1.2,3c-0.8,1.4-1.8,2.2-2.4,2.3c-0.2,0-0.8-0.7-1.1-1.1
		c-0.1-0.2-0.3-0.3-0.4-0.5c0.2-0.5,1.4-2.6,3-3.5C61.7,52.4,62.4,52.3,63.1,52.6z M56.1,49.4c0.2-2.9,1.1-10.4,3.7-13.8
		C59.8,37.3,58.8,44,56.1,49.4z"/>
	<path class="st0" d="M153.2,47.5c-0.1,0-0.1,0-0.2,0c-1.8,0-3.1,0.5-4.1,1.5c-1.6,1.6-2.3,4.6-2.3,9.3c0,0,0,0-0.1,0l-0.3,0
		l-0.1,0.2c-0.7,2.6-2.8,4.3-3.9,4.2c-1-0.1-2.3-1.2-3.5-2.5c3.5-1.6,5.1-5.9,4.7-8.5c-0.2-1.3-0.8-2-1.8-2c0,0-0.1,0-0.1,0
		c-2.9,0-5.1,2-7.3,6.8c0-0.3,0-0.6,0-0.8c0-0.4,0-0.7,0-0.9c0,0,0,0,0-0.1c4.2-5.3,6.6-16.7,6-20.2c-0.1-0.5-0.3-0.9-0.5-1
		c-0.3-0.2-1.7-0.9-2.5-0.3c-1.2,1-2.3,4.7-3.1,7.8c-0.1,0.3-0.1,0.5-0.2,0.6c-0.7,2.3-1.9,10.6-2.3,15.9c0,0.7-1.3,4.7-2.8,5.4
		c-1.1,0.4-2,0-2.6-0.4c-1.7-1.3-2.8-4.3-2.6-7.2c0-0.1,0-0.3,0.1-0.6c0.5-3.6,0.5-4.9-0.2-5c-0.3-0.1-0.6,0-0.8,0.1
		c-0.4,0.3-0.7,1-0.8,2.2l0,0.4c-0.1,0.9-0.2,2.9-0.3,3.5c-0.6,3.4-2.1,6.9-3.5,6.9c0,0-0.1,0-0.1,0c-0.3,0-0.5-0.3-0.7-0.5
		c-1-1.4-1.6-5.1-0.9-9.6c0.4,0,1.5,0.1,2.2,0.2c1.3,0.2,1.9,0.2,2.1,0.1c0.6-0.2,1-1.7,0.9-2.5c-0.1-0.7-0.5-0.8-0.7-0.8
		c-0.1,0-0.4,0-0.9,0c-0.7,0-2.6,0.1-3.1,0c0-0.8,0.3-2.5,0.5-4.1c0.4-2.4,0.5-3.1,0.4-3.4c-0.1-0.3-0.3-0.4-0.6-0.5
		c-0.4-0.1-0.9,0.1-1.3,0.7c-0.2,0.3-0.4,1.5-0.9,4c-0.3,1.4-0.6,3.1-0.7,3.2c-0.1,0.1-0.6,0.2-0.9,0.1c0-0.2-0.1-0.4-0.2-0.5l0-0.1
		c-0.3-0.7-2.3-0.6-3.9-0.4c-3.4,0.5-9.9,2.2-10.3,5.7c-0.3,2.5,3.1,3.1,6.1,3.6c2.2,0.4,4.4,0.7,4.3,1.7c-0.1,0.9-0.6,1.6-1.4,2.1
		c-1.7,1.1-4.6,0.9-5.2,0.8c0-0.1,0-0.1,0-0.2c0.1-0.3,0.2-0.9-0.3-1.3c-0.7-0.6-2-0.4-2.5,0l0,0c0,0-1.1,1.2-0.6,2.3
		c0.4,0.9,1.8,1.6,3.1,1.7c0,0,0,0,0,0c0.2,0,8.8-0.1,9.7-5.7c0.2-1.1-0.4-2-1.9-2.6c-1.2-0.5-2.7-0.7-4.2-1
		c-2.1-0.4-4.4-0.7-4.4-1.7c0-0.6,0.4-1.2,1.1-1.7c2.1-1.5,6.3-1.8,7.4-1.7c0,0.1-0.1,0.2-0.2,0.3c-0.3,0.5-0.6,1.1,0.2,1.9
		c0.2,0.2,0.6,0.1,1.6-0.2c0.4-0.1,1.2-0.4,1.6-0.4c-0.2,3.3,0.3,10.7,2.6,12.8c0.5,0.5,1.1,0.7,1.8,0.5c1.1-0.2,3.2-2.1,4.2-5.2
		c0.5,1.9,1.9,5.5,5.2,5.2c2.4-0.2,4.1-3,4.9-4.5c0.1,2,0.3,4,1.1,4.6c0.1,0.1,0.3,0.2,0.5,0.2c0.1,0,0.1,0,0.2,0
		c0.3-0.1,0.5-0.3,0.7-0.6c0.6-0.9,0.4-2.8,0.3-3.1c-0.1-0.4,0.1-2.2,0.3-2.9c0.1,0.1,0.2,0.3,0.3,0.5c1.1,1.7,3.3,5.3,6.5,5.5
		c2.5,0.1,4.1-2.9,4.5-3.8c0.2-0.4,0.4-0.9,0.5-1.3c1,2.3,3.4,4.8,6.1,4.8c0.1,0,0.2,0,0.4,0c6.2-0.5,6.9-8.6,6.9-9
		c0.1-0.8-0.2-4.4-2.3-6.8C157,48.3,155.3,47.5,153.2,47.5z M149.3,58.6c0-0.1,0-0.1,0-0.1l0-0.2l0,0c-0.6-2.5,0-5.5,1.5-7.3
		c0.5-0.6,1.3-1.4,2.4-1.4c0,0,0,0,0,0c1.2,0,2.3,0.4,3,1.3c1.9,2,1.7,5.9,1.7,6.1c-0.2,4.2-1.7,6.4-4.3,6.4c0,0,0,0,0,0
		c-3,0-4-3.4-4.2-4.6l0,0L149.3,58.6z M140.9,55.4c-0.5,0.9-2.4,2.7-3.8,2.4c0,0,0,0,0-0.1c-0.5-0.9-0.6-1.4-0.5-1.5
		c1.1-2.3,2.8-3.7,4-3.8c0.3,0,0.6,0,0.8,0.3C141.5,53.1,141.8,53.8,140.9,55.4z M134.7,49.9c0.7-6.8,3-14.4,3.8-14.6
		C139.2,36,137,45.5,134.7,49.9z"/>
</g>
<g>
	<path class="st0" d="M181.3,43.5c0.8,0,1.5,0.2,2.1,0.6c0.7,0.4,1.2,0.9,1.6,1.6c0.4,0.7,0.6,1.4,0.6,2.1c0,0.8-0.2,1.5-0.6,2.1
		c-0.4,0.7-0.9,1.2-1.6,1.5c-0.7,0.4-1.4,0.6-2.1,0.6c-0.8,0-1.5-0.2-2.1-0.6c-0.7-0.4-1.2-0.9-1.6-1.5s-0.6-1.4-0.6-2.1
		s0.2-1.5,0.6-2.1c0.4-0.7,0.9-1.2,1.6-1.5C179.8,43.7,180.5,43.5,181.3,43.5 M181.3,44.2c-1,0-1.8,0.3-2.5,1c-0.7,0.7-1,1.5-1,2.5
		c0,1,0.3,1.8,1,2.5c0.7,0.7,1.5,1,2.5,1c1,0,1.8-0.3,2.5-1c0.7-0.7,1-1.5,1-2.5c0-1-0.3-1.8-1-2.5
		C183.1,44.5,182.2,44.2,181.3,44.2 M180.3,50h-0.7v-4.6h1.6c0.6,0,1,0,1.2,0.1c0.2,0.1,0.4,0.2,0.6,0.4c0.1,0.2,0.2,0.4,0.2,0.7
		c0,0.3-0.1,0.6-0.4,0.9c-0.2,0.2-0.6,0.4-0.9,0.4c0.2,0.1,0.3,0.2,0.5,0.4c0.2,0.2,0.3,0.4,0.6,0.8l0.6,0.9h-0.9l-0.4-0.7
		c-0.3-0.5-0.5-0.8-0.7-1c-0.2-0.2-0.4-0.2-0.7-0.2h-0.4V50z M180.3,46v1.4h0.9c0.4,0,0.7-0.1,0.8-0.2c0.2-0.1,0.3-0.3,0.3-0.5
		c0-0.3-0.1-0.4-0.3-0.5c-0.2-0.1-0.5-0.2-0.9-0.2H180.3z"/>
</g>
</svg>
