<?xml version="1.0" encoding="utf-8"?>
<!-- Generator: Adobe Illustrator 20.1.0, SVG Export Plug-In . SVG Version: 6.00 Build 0)  -->
<svg version="1.1" id="pti-logo" xmlns="http://www.w3.org/2000/svg" xmlns:xlink="http://www.w3.org/1999/xlink" x="0px" y="0px"
	 viewBox="0 0 400 400" style="enable-background:new 0 0 400 400;" xml:space="preserve">
<style type="text/css">
	.Drop_x0020_Shadow{fill:none;}
	.Outer_x0020_Glow_x0020_5_x0020_pt{fill:none;}
	.Blue_x0020_Neon{fill:none;stroke:#8AACDA;stroke-width:7;stroke-linecap:round;stroke-linejoin:round;}
	.Chrome_x0020_Highlight{fill:url(#SVGID_1_);stroke:#FFFFFF;stroke-width:0.3629;stroke-miterlimit:1;}
	.Jive_GS{fill:#FFDD00;}
	.Alyssa_GS{fill:#A6D0E4;}
</style>
<linearGradient id="SVGID_1_" gradientUnits="userSpaceOnUse" x1="-200" y1="-196.5" x2="-200" y2="-197.5">
	<stop  offset="0" style="stop-color:#656565"/>
	<stop  offset="0.618" style="stop-color:#1B1B1B"/>
	<stop  offset="0.6292" style="stop-color:#545454"/>
	<stop  offset="0.9831" style="stop-color:#3E3E3E"/>
</linearGradient>
<g>
	<path id="pti" d="M237.5,27.3c0.1,0,0.3,0.1,0.5,0.1c0.5,0,1-0.2,1.6-0.8c1-1,0.6-2.5-0.3-3.5c-0.8-0.9-2.2-1.4-3.2-0.4
		c-0.5,0.5-0.7,1.4-0.5,2.3C235.8,26,236.5,27,237.5,27.3z"/>
	<path id="pti" d="M100.4,19c0.6,0.3,2.5,0.2,6.1-0.1c2.3-0.2,5-0.5,7.3-0.5c0.4,0,0.6-0.2,0.8-0.6c0.3-0.8-0.1-2.5-0.7-3
		c-0.4-0.4-3.2-0.4-19.7-0.1c-3.2,0.1-5.6,0.1-6.1,0.1c-0.1,0-11.7,0-13.6,1.9c-0.2,0.2-0.3,0.5-0.3,0.7c-0.1,0.2-0.3,0.7-0.1,1.2
		c0.2,0.4,0.5,0.6,1.1,0.7c1,0.2,4.1-0.2,7.6-0.6c0.9-0.1,1.7-0.2,2.1-0.2c0.2,0.9-0.1,5.4-0.3,7.1c-0.1,0.9-0.1,1.5-0.1,1.7
		c0,0.8,0.5,0.9,0.8,1c0.1,0,0.3,0.1,0.4,0.1c0.3,0.4,0.3,3.1,0.2,4.1c-0.6,0.2-3.1,0.1-4.4,0.1c-1.7,0-2.4,0-2.6,0
		c-0.6,0.2-1,1.6-1,2.3c0,0.6,0.1,1,0.4,1.1c0.3,0.2,1.1,0.1,3.8-0.2c1.4-0.2,3.4-0.4,3.9-0.3c0.3,1.3-0.1,11.8-0.5,13.2
		c-0.6,0-2.8-0.3-4.5-0.6c-3.4-0.6-4.4-0.7-4.7-0.5c-0.3,0.2-0.5,0.6-0.6,1.2c-0.1,0.6,0,1.4,0.4,1.8c0.4,0.3,10.1,1,15.9,1.3
		c8.4,0.5,12.4,0.6,14.2,0.6c1.6,0,1.7-0.1,1.8-0.2c0.2-0.2,1.6-0.3,2.5-0.4c1.9-0.2,2.8-0.4,3.2-0.7c0.4-0.3,0.5-1,0.5-1.4
		c0-0.8-0.2-1.8-0.5-2.1c-0.6-0.6-11.8,0.1-12.5,0.4c-0.5,0.3-0.5,0.6-0.6,0.9c-1.1,0.1-9.8,0.2-11.5-0.1
		c-0.5-1.4-0.5-11.8-0.1-13.3c0.3,0,0.9-0.1,1.9-0.2c2.5-0.2,9-0.8,9.8-0.4c0.9,0.8,9-0.2,9.5-0.4c0.4-0.2,0.7-0.6,0.7-1.1
		c0.1-0.7-0.3-1.4-0.9-1.9c-0.8-0.6-8.3,0.1-9.4,0.5l0,0C99.7,32.5,90,33,89.2,32.5c-0.4-0.9,0.2-13.4,0.7-14.3
		c0.5-0.4,5.6-0.4,10.1-0.2c0,0,0,0,0,0C100,18.2,99.9,18.7,100.4,19z"/>
	<path id="pti" d="M316.2,29.5c-5.1-1.3-13.3,1.1-17.8,4.2c-1.2,0.8-2.7,2.1-2.8,3.5c-0.5,4.4,5.2,5.5,9.8,6.4c2.9,0.6,5.8,1.2,6,2.4
		c0.2,1.1-1.1,2.6-3.2,3.7c-2.2,1.2-5.2,1.9-6.5,0.8c0-0.1,0-0.3,0-0.4c0.1-0.5,0.1-1.3-0.4-1.8c-0.6-0.6-1.7-0.6-2.1-0.6
		c-0.9,0-2.1,0.3-2.6,0.9l0,0.1c0,0.1-1.1,2-0.1,3.4c1.1,1.6,3.5,2.6,5.2,2.6c3.5,0,13.9-3.7,14.5-9.1c0.4-3.7-5-4.7-9.7-5.6
		c-2.8-0.5-5.7-1.1-6.4-2.1c-0.1-0.2-0.2-0.4-0.1-0.6c0-0.2,0.3-0.8,1.6-1.6c2.9-1.9,8.4-3.5,11.8-2.9c0,0.1-0.1,0.2-0.1,0.2
		c-0.2,0.5-0.5,1.2,0,1.8c1,0.9,2.8,0.9,3.8-0.1c0.9-0.9,1-2.2,0.8-3.2C317.5,30.4,316.9,29.7,316.2,29.5z"/>
	<path id="pti" d="M201.6,44.5c-0.7-0.5-1.5-0.4-2.2-0.3c-0.9,0.2-1.8,0.6-2.1,1.1c-0.3,0.4-1.1,1.5-0.6,3.7c0,0.1,0,0.1,0,0.1
		c-0.1,0-0.4,0-0.6,0c-0.2,0-0.5,0-0.7,0c-0.4,0-0.7-0.1-0.9-0.3c-1.4-1.3-1.3-5.7-1.3-7.3l0-0.4c0-5.2,0.5-7.8,0.8-9.5
		c0.3-1.4,0.4-2.3,0.1-3.5c-0.1-0.4-0.5-0.6-1-0.7c-0.6-0.1-1.4,0-1.8,0.5c-0.5,0.7-0.8,2.2-1.2,4c-0.4,1.8-0.8,4.1-1.6,6.2
		c-0.1,0.2-0.2,0.5-0.3,1c-2.8,9.1-4,10-4.3,9.9c-0.9-0.2-0.7-4.1-0.6-5.6c0.1-1,0.1-1.4,0-1.6c-0.1-0.4,0.2-3.5,0.4-6.1
		c0.3-4.2,0.5-6.2,0.4-6.6c-0.2-0.7-1.3-1.4-2.1-1.6c-0.5-0.1-0.9,0.1-1.1,0.5c-0.2,0.5-0.8,4.7-1.6,12.2c-0.2,1.9-0.4,3.4-0.5,3.8
		c-0.2,1.1-2.3,4.6-4.4,4.3c-0.6-0.1-1.6-0.8-2.2-2c-0.2-0.5-0.7-5.4-0.5-6c0.6-2.2,0.8-3.5,1-4.6c0.1-0.8,0.2-1.4,0.4-2.2
		c0,0,0.1,0,0.2-0.1c0.7-0.2,1.5-0.6,1.4-3.4c0-0.5-1.1-3-3.3-4.9c-1.9-1.6-4-2.3-6.4-2.1c-4.8,0.5-8.3,3.6-10.6,9.1
		c-0.4,1-2.3,8-1.8,11.2c0,0.3-0.5,1.7-1.8,3.3c-0.7,0.9-2.2,2.5-3.9,2.7c-0.9,0.1-2.3-0.5-3.4-1.4c-0.9-0.8-1.4-1.7-1.5-2.5
		c0.1,0,0.3,0,0.5-0.1c0.7-0.1,1.7-0.2,2.4-0.9c2.1-2,3.2-4.9,3.9-7.2c0.2-0.7,0.7-3.9-0.1-6.1c-0.3-0.9-1.9-2.6-4.4-1.9
		c-2,0.6-3.8,1.8-5.7,3.7c-0.6,0.6-1.5,2.4-2.4,4.1c-0.4,0.8-0.9,1.8-1.3,2.3c-0.2-0.8-0.2-2.1,0-2.4c1.4-1.7,5-9.2,5.3-10.1
		c1.2-3.6,2.8-8.9,3.6-13.5c0.5-2.8,0.1-8.4-1-8.9c-0.7-0.3-1.8-0.1-2.7,0.1c-0.3,0.1-0.5,0.1-0.7,0.1c-1.3,0.2-5.7,12-6.3,16.8
		l-0.1,0.7c-1.9,15.8-2.4,18.7-2.5,19.1c-0.3,1.2-2.9,6.9-3.9,7.8c-0.4-1-0.9-5.1-1.1-6.7c-0.1-0.7-0.2-1.2-0.2-1.4
		c-0.1-0.4-0.2-2.6-0.4-4.8c-0.3-4.4-0.4-6.4-0.6-6.8c-0.2-0.5-0.6-0.8-1.3-0.9c-0.8-0.1-1.6,0.1-2,0.6c-0.2,0.2-0.5,1-1,2.6
		c-0.3,0.8-0.6,1.7-0.8,2.2c-0.1,0.3-0.3,0.8-0.5,1.4c-0.3,0.9-0.6,2-0.9,2.8c0-1.4,0.1-4.2,0.2-4.9c0-0.1,0-0.3,0.1-0.6
		c0.3-2.3,0.5-3.9,0.2-4.5c-0.3-0.6-1-0.7-1.5-0.8c-0.2,0-0.3-0.1-0.4-0.1c-0.2-0.1-0.5-0.1-0.8,0.3c-0.2,0.3-0.8,1.2-0.5,1.6
		c0,0,0,0,0,0.1c0.1,3.8,0,8-0.3,8.5c-0.7,0.8-0.3,4.5-0.1,5.3c0.1,0.2,0.1,0.4,0.2,0.6c0.1,0.4,0.3,0.9,0.5,2.5c0,0.2,0,0.8,0,1.4
		c-0.1,2-0.1,3.3,0.4,3.8c0.4,0.4,0.9,0.5,1.2,0.4c0.5-0.1,0.8-0.6,1-1.4c0.1-0.2,0.2-0.6,0.3-1.1c0.8-3,1.7-6.2,1.7-6.9
		c0-0.8,1.1-4.6,1.7-6c0.1,0.8,0.3,2.2,0.5,3.5c1.2,9.6,2.2,14.8,4,14.9c0.7,0,1.7-1.4,5-6.5c0.2-0.3,0.3-0.5,0.5-0.7
		c0.2,2.3,1,6.7,1.5,7.3c0.3,0.4,0.8,0.7,1.3,0.7c0,0,0.1,0,0.1,0c0.5,0,0.9-0.4,1.1-0.8c0.4-0.9,0.2-3.4,0.1-4.9
		c-0.1-0.7,0.3-2.9,0.5-4.1c1.1,2.2,4.5,7.2,8.6,8.6c1.3,0.4,3.1,0.3,4.1-0.3c2.8-1.7,3.9-5.1,4.4-6.8c2,5.4,4.4,7.8,7.5,7.7
		c4.3-0.2,6.8-4.5,7.7-6.2c0.6,1.2,1.9,3.3,3.2,4.4c0.7,0.6,1.4,0.9,2,0.8c2.5-0.5,4.6-3.4,5.9-5.1c0.2-0.2,0.3-0.4,0.5-0.6
		c0,0.1,0,0.3,0.1,0.4c0.2,1.9,0.6,5.5,3.1,5.6c2.8,0.1,4.8-5.6,5.8-8.6c0.1-0.1,0.1-0.3,0.2-0.4c0,0,0,0.1,0,0.1
		c0.4,2.8,1.5,9.5,5.8,9.4c3.2-0.1,5-3.6,5.8-5.2C202.4,46.7,202.5,45.1,201.6,44.5z M169.7,30.3c-0.6,0.5-0.8,2.3-0.8,2.6
		c0,1.5-0.1,5.6-0.8,10.4c-0.1,0.4-2.8,7.2-6.4,7.2c-2.9,0-5.1-6.3-5.2-7.6c-0.2-4,0.4-8.3,1.6-10.5c1.6-3.1,4.9-5,6.7-5
		c0.1,0,0.1,0,0.2,0C167.9,27.6,169.3,29.4,169.7,30.3z M146.1,34.4c0.1,0.3-0.1,1.5-1.2,3.6c-1.2,2.2-3,4.5-4.3,4.6
		c-0.4,0-1.2-1-1.8-1.7c-0.2-0.3-0.4-0.5-0.6-0.7c0.2-0.7,2.1-4,4.5-5.4C143.9,34,145.1,33.9,146.1,34.4z M146.1,34.4L146.1,34.4
		C146.1,34.4,146.1,34.4,146.1,34.4L146.1,34.4z M135.3,30c0.2-4.1,1.6-16.5,5.9-21.8C141.3,10.5,139.6,21.4,135.3,30z"/>
	<path id="pti" d="M283.5,26.8c-2.8-0.1-4.9,0.7-6.4,2.2c-2.4,2.4-3.5,7-3.4,14.3c-0.1,0-0.1-0.1-0.2-0.1c-0.1,0-0.3,0-0.4,0.4
		c-1,4.1-4.3,6.7-6,6.5c-1.6-0.2-3.7-1.9-5.4-3.9c5.4-2.3,7.8-8.9,7.2-12.9c-0.3-1.9-1.2-3-2.6-3c-4.6-0.1-7.9,3-11.4,10.7
		c0-0.6,0-1.2,0-1.7c0-0.7,0-1.2,0-1.4c0,0,0-0.1,0-0.1c6.4-8,10-25.5,9.1-30.8c-0.1-0.8-0.4-1.3-0.7-1.5c-0.1-0.1-2.4-1.5-3.6-0.5
		c-1.8,1.5-3.5,7.2-4.8,11.9c-0.1,0.4-0.2,0.7-0.2,0.9c-1.1,3.5-2.9,16.3-3.5,24.2c-0.1,1-2,7.3-4.4,8.3c-1.3,0.6-2.7,0.4-4-0.6
		c-2.7-2-4.4-6.6-4-11c0-0.2,0.1-0.5,0.1-1c0.8-5.4,0.7-7.3-0.3-7.6c-0.4-0.1-0.8,0-1.2,0.2c-0.6,0.5-1,1.5-1.2,3.4
		c0,0-0.4,4.7-0.5,5.9c-0.8,4.5-3.1,10.9-5.6,10.7c-0.4,0-0.8-0.3-1.1-0.8c-1.6-2.1-2.5-7.9-1.3-14.8c0.5-0.1,2.3,0.1,3.4,0.3
		c2,0.2,2.8,0.3,3.2,0.2c0.8-0.3,1.4-2.6,1.3-3.7c-0.1-0.9-0.7-1.1-1-1.1c-0.2,0-0.6,0-1.4,0c-1.2,0.1-4.2,0.2-4.8,0
		c0-1.1,0.4-3.9,0.8-6.3c0.5-3.4,0.7-4.7,0.6-5c-0.1-0.4-0.4-0.6-0.8-0.7c-0.6-0.1-1.3,0.2-1.8,1c-0.2,0.4-0.6,2.2-1.4,6
		c-0.4,2.1-1,4.7-1.1,5c-0.2,0.2-1.1,0.3-1.5,0.2c0-0.3-0.1-0.6-0.3-0.8l-0.1-0.2c-0.4-1.1-3.9-0.8-5.8-0.5
		c-5.1,0.7-14.9,3.4-15.6,8.6c-0.5,3.7,4.7,4.5,9.2,5.3c3.5,0.6,6.8,1.1,6.6,2.8c-0.2,1.4-0.9,2.6-2.1,3.3c-2.8,1.8-7.3,1.4-8,1.2
		c0-0.1,0-0.3,0.1-0.4c0.1-0.5,0.2-1.3-0.4-1.9c-1-0.8-3-0.6-3.7,0l0,0c-0.1,0.1-1.6,1.6-0.9,3.1c0.7,1.3,2.7,2.3,4.7,2.3
		c0,0,0,0,0,0c0.2,0,13.3,0.1,14.8-8.5c0.6-3.8-4.6-4.5-9.2-5.3c-3.3-0.5-6.7-1.1-6.8-2.6c0-1,0.6-1.9,1.8-2.7
		c3.4-2.2,9.9-2.7,11.3-2.5c-0.1,0.2-0.2,0.4-0.3,0.6c-0.4,0.7-0.9,1.7,0.3,2.9c0.3,0.3,0.8,0.1,2.4-0.3c0.7-0.2,2.1-0.6,2.5-0.6
		c-0.3,4.9,0.3,16.4,3.9,19.6c0.8,0.7,1.7,1,2.7,0.8c1.6-0.3,5-3.3,6.5-8.2c1.6,5.8,4.3,8.5,7.9,8.2c3.8-0.3,6.4-4.9,7.5-7.2
		c0.2,3.1,0.5,6.5,1.6,7.3c0.2,0.1,0.4,0.2,0.6,0.2c0.1,0,0.2,0,0.3,0c2-0.5,1.5-5,1.4-5.4c-0.2-0.7,0.2-3.7,0.5-4.8
		c0.2,0.2,0.4,0.6,0.6,0.9c1.6,2.6,5,8,9.9,8.3c3.7,0.2,6.1-4.2,6.7-5.6c0.3-0.6,0.7-1.7,0.8-2.4c1.6,3.8,5.5,7.6,9.4,7.6
		c0.2,0,0.3,0,0.5,0c1-0.1,9.5-1.1,10.5-13.6c0.1-1.1-0.2-6.6-3.5-10.2C289.2,27.9,286.6,26.8,283.5,26.8z M277.4,43.6
		c-1-4-0.1-8.9,2.1-11.8c0.8-1,2.1-2.3,3.8-2.3c0,0,0,0,0.1,0c1.9,0,3.5,0.8,4.7,2.1c2.9,3.1,2.6,9.2,2.6,9.4
		c-0.4,6.4-2.7,9.9-6.6,9.9c-4.6,0-6.1-5-6.6-6.9l0,0L277.4,43.6z M265.6,34.8c0.5,0.7,0.2,2.2-0.8,4c-0.8,1.4-3.8,4.3-5.9,3.8
		c0-0.1-0.1-0.1-0.1-0.2c-0.7-1.3-0.9-2.1-0.8-2.3c1.6-3.6,4.4-5.7,6.2-5.8C264.7,34.3,265.3,34.3,265.6,34.8z M259.6,18.5
		c-1.3,5.1-3,9.6-4.5,12.3c1-9.6,4-20.8,5.8-22.7c0.2-0.2,0.2-0.2,0.2-0.2C261.6,8.3,261.4,11.9,259.6,18.5z"/>
	<path id="pti" d="M330.1,24.3c-0.5-0.8-1.2-1.5-2-2c-0.9-0.5-1.8-0.7-2.8-0.7c-1,0-1.9,0.2-2.8,0.7c-0.9,0.5-1.5,1.2-2,2
		c-0.5,0.9-0.7,1.8-0.7,2.8c0,1,0.2,1.9,0.7,2.8c0.5,0.8,1.2,1.5,2,2c0.8,0.5,1.8,0.7,2.8,0.7c1,0,1.9-0.2,2.8-0.7
		c0.9-0.5,1.5-1.2,2-2c0.5-0.8,0.7-1.8,0.7-2.8C330.9,26,330.6,25.1,330.1,24.3z M328.6,30.3c-0.9,0.9-2,1.3-3.3,1.3
		c-1.3,0-2.4-0.4-3.3-1.3c-0.9-0.9-1.3-2-1.3-3.3c0-1.3,0.4-2.4,1.4-3.3c0.9-0.9,2-1.3,3.3-1.3c1.3,0,2.4,0.4,3.3,1.3
		c0.9,0.9,1.4,2,1.4,3.3C329.9,28.3,329.5,29.4,328.6,30.3z"/>
	<path id="pti" d="M326.7,27.8c-0.2-0.2-0.4-0.4-0.6-0.5c0.5,0,0.9-0.2,1.2-0.5c0.3-0.3,0.5-0.7,0.5-1.1c0-0.3-0.1-0.6-0.3-0.9
		c-0.2-0.3-0.4-0.2-0.7-0.3c-0.3-0.1-0.8,0.1-1.5,0.1H323v5h1v-2h0.6c0.4,0,0.7,0.1,0.9,0.3c0.2,0.2,0.5,0.4,0.9,1.1l0.5,0.7h1.2
		l-0.7-0.9C327.1,28.1,326.8,28,326.7,27.8z M325.2,26.5H324v-2h1.2c0.6,0,1,0.2,1.2,0.4c0.2,0.1,0.3,0.4,0.3,0.8
		c0,0.3-0.1,0.5-0.3,0.7C326.1,26.4,325.7,26.5,325.2,26.5z"/>
</g>
<path id="pti" d="M280.4,202.2c-0.1-0.4-0.3-0.5,0.3-0.8c-4.5-1.5-9.7-1.8-14.4-2.2c-1.5,0-3-0.2-4.4-0.3c-1.5,0-2.4,0.2-4.1-0.1
	c-0.3,0.1-0.8,0.2-1-0.3c0.5-2.1,1.4-4,2.1-5.8c1-1.9,1.9-3.6,2.3-5.2c-0.3-0.5-0.1-0.5-1.1-0.8v-0.3h0.3c-0.5,0-0.8-0.6-1-0.8
	c-0.3,0-0.8-0.2-0.9-0.2c-0.4,0-0.5,0.2-0.9,0.2c-0.1-0.3-0.2,0.1-0.3,0.1c-0.5-0.3-0.9-0.1-0.9,0.2c0,0.1-0.2,0.5-0.3,0.6
	c-0.1,0.3-0.3,0.4-0.6,0.9c-0.4,0.3-0.7,1-1.1,1.6c-1,1.5-2,3.1-2.7,4.4c-0.1,0.4-0.4,0.8-0.9,1.2c-0.1,0.1-0.2,0.2-0.3,0.3
	c0,0.1,0.1,0.3,0.2,0.4c-0.1,0.2-0.5,0.4-0.5,0.5c-0.1,0.2-0.1,0.5-0.2,0.7c-0.3,0.3-0.7,0.4-0.8,0.9c-0.3,0.4-0.2,0.9-0.5,0.9
	c-0.1,0.1-0.1,0.1,0,0.1c0,0-0.2,0-0.7,0c-4.8-0.1-8.5,0.3-12.6,0.9c-2.3,0.5-4.8,0.9-6.9,1.7c-0.9,0.3-2.2,0.8-3.4,0.5
	c0,0.3,0,0.7,0.3,0.9c0.3,0.5,1.1,1,1.8,1.5c0.8,0.9,1.6,1.2,2.7,1.7c0.7,0.2,1.1,0.3,1.5,0.3c1.5,0.6,3.9,0.3,6.2,0.4
	c1.6-0.3,3.4-0.3,5.2-0.4c1.7-0.4,1-0.3,1.1-0.3c-0.1,0.6-0.5,0.9-0.7,1.8c-0.1,0-0.3,0.3-0.1,0.5c-0.2,0.1-0.4,0.3-0.4,0.4
	c0,0.3,0.2,0.6-0.1,0.9c0,0.1-0.2,0.1-0.3,0.2c-0.1,0.3,0.1,0.5,0,0.6c-0.1,0.3-0.5,0.3-0.7,0.7c-0.3,0.5-0.1,0.7-0.2,1.2
	c0,0.3-0.3,0.7-0.5,0.9c-0.3,0.3,0.1,0.7-0.2,1.1c-0.1,0.5-0.3,0.7-0.3,0.8c0,0.3,0.1,0.4,0,0.8c0,0.3-0.3,0.4-0.3,0.6
	c0,0.2,0,0.3-0.2,0.6c0,0.3-0.3,0.5-0.2,0.7c-0.1,0.3-0.1,0.8-0.2,0.9c0.1,0.3-0.2,0.3-0.3,0.5c-0.1,0.1,0.2,0.3,0,0.4
	c0,0.2-0.3,0.1-0.3,0.3c-0.1,0.2,0,0.5-0.2,0.8c0.1,0.3-0.2,0.4-0.3,0.7c-0.1,0.3-0.2,0.8-0.2,0.9c-0.3,0.6-0.6,1.4-0.6,1.8
	c0.3-0.9,1.1-2.1,1.6-2.9c0-0.1,0-0.5-0.1-0.5c0.1,0,0.3,0,0.5,0c0.3,0,1.2-1.8,1.4-2.1c-0.4,1-0.6,1.8-1,3.3c0,0.3-0.3,1-0.4,1.3
	c-0.2,0.3-0.2,0.9-0.2,1.6c-1.8,1.7-6.1,5.5-7.9,7c-0.3,0.1-0.4,0.3-0.6,0.3c-0.2,0.3-0.2,0.7-0.5,0.9c-1.3,1.1-1.4,1.2-3.3,2.5
	c-2.5,1.3-4.1,2.8-7.1,1.5c-0.7-0.9-1-2.4-1-3.7c0-2.2,0.7-4.5,1.2-6c0.3-0.7,0.5-1.5,0.8-2.2c1.5-3.4,3.8-6.6,3.4-10.1
	c-1.2-1.9-3.7-3.3-7-2.7c-0.9,0.8-1,2.3-1.9,3c-1.5-0.4-2.3-1.6-4-1.7c-0.8,0.6-1.9,0.9-2.7,1.3c-0.9,0.5-1.5,1.5-2.6,1.5
	c-0.7-0.3-5.1,3.5-5.1,3.5c-2.2,2.1-3.4,5.1-5.2,7.9c-0.1,0.5,0.2,0.6,0.2,0.9c-0.4,0.4-0.9,0.9-1.4,1.4c-1.9,1.9-7.1,8.1-9,9.3
	c-1,0.6-2,1.4-3.2,1.9c-1.2,0.5-2.4,1.2-3.9,0.8c-0.4-2.8,1.1-5.6,1.5-8.1c0-0.2-0.1-0.6,0.1-1c0.3-1.2,1.5-2.6,2.1-4.2
	c0.4-1.6,0.4-3.7,1.2-5.2c0.1-0.7,0.5-0.9,0.8-1.5c0.1-0.7-0.4-1.6-0.4-2.2c-0.3-0.4-0.7-0.8-1-0.9c-0.5-0.4-1.2-0.5-1.6-0.7
	c-0.4-0.3-0.6-0.8-1-1c-0.7-0.9-1.8-1.5-3-1.9c-1.4-0.2-3.2,0.1-4.7,0.5c-3.4,1-6.5,2.8-9.4,4.6c-0.5,0.4-1.2,1-1.9,1
	c0.3-1.5,0.5-3.2,0.9-4.6c0.3-0.4,0.3-1.2,0.5-1.5c1.1-3,2.2-5.9,3.1-8.4c0.2-0.3,0.3-1,0.7-1.6c0.1-0.5,1-3.1,1.3-3.2
	c0.7-0.5,2.3-0.7,3.1-1c0.3-0.2,0.9-0.4,1.3-0.6c0.6-0.1,1.1-0.1,1.9-0.3c0.1-0.1,0.4-0.2,0.6-0.3c0.3,0,0.6-0.1,0.9-0.3
	c4.3-1.3,8.6-3.5,12.6-5.1c2.2-1,4.3-2.3,6.4-3.5c1.5-1.3,2.8-2.2,4-3.9c0.2-0.6,0.3-1.1,0.8-1.7c0.3-0.4,0.6-0.4,0.9-1.1l0.2-2
	c0.4-2.2-0.2-3.7-1.2-5.2c-0.6-0.6-1.5-1.4-2.2-2c-1.9-0.9-3.6-1.5-5.9-2.4c-0.9-0.3-1.8-0.8-2.7-0.9c-2.1-0.7-4.2-0.9-6.1-0.9
	c-0.1,0.5-0.3,0.7-0.8,0.6c-0.5,0.7-1.5,0.7-1.8,0.2c-0.3,1-1.4,0.9-1.8,1.8c0.7,0,1.1-0.9,2.1-0.5c-0.9,0.5-1.5,1.3-2.6,1.5
	c-0.3,0.1-0.6,0.1-0.9,0.1c-0.4,0.3-0.6,0.9-1.1,1.5c-0.4,0.4-1.3,0.5-1.6,0.9c-0.3,0.3-0.3,0.7-0.5,0.9c-0.2,0.3-0.5,0.3-0.7,0.4
	c-0.2,0.3-0.1,0.4-0.2,0.6c-0.1,0.2-0.3,0.2-0.4,0.2c-0.2,0.1-0.4,0.3-0.5,0.3c-0.1,0.3-0.2,0.6-0.4,1c-0.5,0.9-1.4,1.5-1.9,2.3
	c-0.3,0.3-0.3,0.7-0.5,0.9c-0.2,0.4-0.5,0.4-0.8,0.8c-0.2,0.1-0.2,0.5-0.4,0.7c-0.6,0.6-1.8,1.8-1.5,2.7c-0.8-0.2-1,1-1.3,1.4
	c-0.3,0.5-0.9,0.9-1.5,1.5c-0.5,0.6-0.9,1.5-1.5,2.2c-0.3,0.9-0.4,0.7-0.7,1.5c-0.3,0.8-0.5,0.6-1.1,1.6c-0.4,0.9-0.8,2.2-1.2,2.4
	c-0.2,0.2-0.7,0.4-1.3,0.7c-1.5,0.3-4.2,0.7-5.5,0.7c-3.1,0.1-4.2,0.2-5.7,0.2c-1.2,0-2.7-0.1-5.7-0.2c0-0.3,0.3-1.3,0.4-1.7
	c0.2-0.2,0.6-1.4,0.7-1.7c0.7-1,0.5-1.6,1.2-3.2c0.2-0.5,0.8-2,0.9-2.4c0.3-1.1,0.3-1.1,1-1.6c0.3-0.9,0.3-1.4,0.5-2.6
	c0-0.5,0.3-1.2,0.2-1.6c-0.2-0.1-0.5-0.3-0.9-0.8c-0.1-0.3-0.4-0.9-0.8-1c-0.5-0.3-1.2-0.3-2.1,0.3c0.4,1.1-0.1,1.6-0.8,2.5
	c-2.9,5.4-3.9,4.8-6.5,10.6c-0.4,1.2-0.9,2.6-1.2,2.8c-0.5,0.1-1.5-0.3-2.3-0.3c-5.2-0.6-4.1-0.9-8.9-1.2c-5.2-0.3-8.9,0.6-12,3.1
	c-0.3,0.3-0.9,0.9-1.3,1c-0.3,0.3-0.9,0.3-1.1,0.6c0.2,0.2,0,0.3,0.3,0.5c0.2,0,0.4,0,0.7,0.3c0.5,0.3,1.1,0.6,1.5,0.7
	c0.3,0,0.8-0.1,1.2-0.1c0.5-0.1,0.9,0,1.5,0c0.8,0,1.7-0.3,2.6-0.3c1,0,1.7,0,2.8,0c0.3,0,0.6-0.4,1-0.5c1.4-0.1,2.4,0.1,3.7,0.1
	c0.9,0,1.5,0,2.2-0.2c0.8-0.1,1.7,0.2,2.7,0.2c3.4,0.2,0.3-0.4,3.6,0.1c-0.8,2.4-4,11-4.7,13.9c-0.8,2.7-1,5.5-1.3,8.3
	c-0.3,2.2-0.7,3.9-0.5,5.8c0.1,4,1,7.7,2.7,10.1c0.7,0.8,2.1,2.1,3.1,2.3c0.8,0.3,1.6,0.3,2.2,0.1c0.2,0,0.4-0.8,0.9-0.3
	c0.3-0.3-0.3-0.6-0.4-0.8c-0.8-1.3-0.8-3.1-0.9-4.9c0-2.4-0.1-4.6,0.2-7.1c0.4-3.3,2.5-12.6,2.8-13.4c0.3-1.7,0.7-4.4,1.4-5.8
	c0.2-0.3,2.8-7.7,3.3-8.1c0.3-0.3,3.7-0.1,4.5-0.3c6.1-0.4,2.2,0,8.2-0.5c0.9-0.1,3.4-0.5,4.1-0.3c-1.1,3.1-4,11.7-4.7,15.5
	c-0.7,3.1-0.9,6.4-0.6,8.7c0.2,0.9,0.2,1.5,0.3,2.1c0,0.5,0.9,1.4,0.8,1.9c-0.3,0.7-1.9,0.4-2.2,0.7c0.8,0.5,1.5,0.9,2.3,1.4
	c0.3,0.1,0.4,0.1,0.8,0.3c0.2,0.3,0.2,0.8,0.3,0.9c0.2,0.1,0.4,0.2,0.7,0.3c0.2,0.1,0.2,0.1,0.5,0.3c0.3-0.3,0.8,0.4,1.2,0.4
	c0.2,0,0.7-0.3,1-0.3c0.7,0.2,1.5,0.5,2,0.4c0.7-0.3,1.8-1.1,2.8-2c1.4-0.8,2.5-1.6,3.9-2.6c0.3-0.3,0.6-0.6,1.2-0.8
	c0.6-0.5,1.1-1.3,1.9-1.8c0.8-0.3,1.5-0.8,2.1-1.2c0.5-0.4,0.8-0.9,1.3-1.4c0.4-0.6,1.9-1.7,2.3-1.3c0.5,0.3,0.3,1.2,0.2,2.2
	c-0.3,1.5-0.4,2.9-0.4,4.4c0.1,1.4,0.3,2.7,0.3,3.8c0,0.9-0.2,1.6-0.3,2.5c0.4,2.8,1.6,5.3,3.5,6.9c1,0.6,2.2,0.9,3.3,0.9
	c1.5,0,3-0.5,4.1-1.1c0.9-0.3,1.8-0.6,2.4-0.9c0.3-0.3,3.1-2,3.3-2.2c1.3-0.8,4.2-4.4,5.2-5.2c0.5-0.5,0.9-0.9,1.2-1.4
	c0.3,0.3,0.7,0.6,1.2,0.9c1.5,0.6,3.7,1.4,5.2,1.2c2.1-0.3,4.6-3.7,5.4-5c0.4-0.3,0.8-1.3,1.4-0.7c0.3,7.8,3.7,9.9,11.9,9.9
	c2-0.2,5.5-0.4,8.8-3c0.1-0.1,0.1-0.3,0.2-0.5c0.3-0.2,0.7-0.1,0.9-0.2c0.4-0.4,0.6-0.5,1-0.9c0.4-0.3,0.9-0.8,1.4-1
	c0.3-0.2,0.7-0.9,1-1.2c1.1-0.8,2.3-2.2,3.2-3.3c-0.1,0.6-0.1,1,0,1.2c0.1,0.1,0,0.6-0.3,0.9c0.1,0.2-0.1,0.3-0.1,0.6
	c-0.1,0.3,0.2,0.5,0.2,0.8c0,1.3,0,2.6,0.2,3.9c0.1,1.3,0.5,2.8,0.5,3.8c0.3,0.6,0.3,1.4,0.6,2c-0.1,0.4,0.2,1,0.3,1.5
	c0.5,0.4,1,1.1,1,1.7c0.5,0.9,0.4,1,0.8,1.5c1.5,1.5,4.4,3.1,6.6,2.6c1-0.2,1.3-0.5,1.8-0.9c0.8-0.7,1.4-1,1.6-1.6
	c0.3-0.2,0.8-0.5,0.9-0.7c0.1,0,0.1-0.3,0.3-0.5c0-0.3,0.7-0.9,0.3-1.5c-0.5,0.3-0.4,0.9-0.7,1c-0.5,0.7-1.5,1.1-2.3,0.9
	c-1.3,0.2-1.6-0.9-2.3-1.6c0-0.4,0.2,0.1,0.1-0.3c-1.2-1.7-1.7-4.6-1.5-7.7c-0.2-0.5-0.2-1.1-0.2-1.5l0.2,0.1
	c0.2-0.5,0.2-2.5,0.5-2.5c0-1,0.2,0,0.2,0c0-1-0.1-1,0-0.9c0-0.1,0.3-0.3,0.3-0.3c0.1-0.3-0.1-0.4-0.1-0.4c0-0.1,0.3-0.5,0.3-0.6
	c0.4-0.9,0.3-2,0.5-2.6c0.2-0.8,0.2-1.3,0.3-1.9c0.5-0.4,0.3-1.3,0.6-2.2c0.2-0.6,0.3-1.6,0.4-2.5c0-0.3,0.5-0.9,0.5-1.3
	c0.5-1.7,1-3.5,1.5-5.1c0.1-0.9,0.4-1.6,0.8-2.2c-0.1-0.3-0.3-0.9-0.1-0.9c-0.1-0.3,0.3-0.6,0.4-1.3c0.4-1.1,0.4-1.9,0.8-2.8
	c0.2-0.6,0.3-0.9,0.5-1.4c0.3-0.8,1.2-2.4,1.5-2.8c0.3-0.3,0.7-0.4,1.6-0.3c0.5-0.1,1.6-0.6,2.4-0.3c0.4,0,0.9-0.2,1.5-0.3
	c0.1,0,0.2-0.2,0.3-0.2c0.3,0,0.5,0.2,0.8,0c0.3,0.1,0.6,0.1,0.9,0c1.8-0.2,3.5-0.4,5.5-0.6c1.5,0.2,2.9,0.1,4.2,0
	c0.8-0.2,1.6-0.1,2.5-0.1c1.7-0.2,3.5,0,5.2-0.1c0.1-0.3-0.3,0.1-0.2-0.3C279.9,202.5,280.2,202.2,280.4,202.2z M169.8,195.6
	c0.7-1,1.2-2.1,2.1-3.2c0.1-0.3,0.3-0.4,0.5-0.8c0.5-0.6,0.6-1.2,1-1.7c0.3-0.3,0.6-0.9,1-1.3c0.1-0.1,0.2-0.5,0.3-0.7
	c0.1-0.2,0.4-0.4,0.6-0.6c1-1,1.7-2.3,2.8-3.1c0.6-0.9,1-1.4,2.2-1.5l0.1-1c1.3-0.9,2.1-2.4,3.5-3.2c0.4-0.3,0.9-0.1,1.2-0.3
	c0.7-0.6,0.9-1,1.8-1.2c0.3-0.1,0.6-0.3,1-0.3c0.4-0.3,0.8-0.6,1.3-0.8c0.5-0.5,2-0.4,2.9-0.1c0.1,0,0.1,0.3,0.2,0.3
	c0.9,0.3,1.4,0.6,1.7,1.4c0.5,0.8,0.3,0.6,0.3,1.5c0.2,0.1,0.3,0.1,0.3,0.3c0.4,1.4,1,2.9,0.3,4.7c-1.3,3-4.5,5.3-7.5,7
	c-2.2,1.1-4.6,2.1-7.1,2.8c-1.4,0.8-2.8,1.1-4.3,1.6c-0.4,0.3-0.6,0.3-1,0.4c-0.9,0.1-1.7,0.5-2.9,0.8c-0.5,0.2-1.3,0.2-1.7,0.7
	c-0.6-0.3-1,0.6-1.6,0.2C168.9,196.7,169.5,196.2,169.8,195.6z M212.4,219.5c-0.4,1.6-1.7,2.9-2.8,4.1c-1.5,1.7-3.4,4.3-6,5.2
	c2.4-3.7,4.7-7.3,8.4-9.7C212.6,219.1,212.6,219.5,212.4,219.5z"/>
<g>
	<g>
		<path id="pti" d="M34.2,216.3c-0.7,2.3-0.9,5.8-1.4,9.1c-1,7.3-3.3,14.4-4.8,21.2c0.5,0.6,1.1-2,1.5-1.6c-0.5,1.9-1.5,4.2-2.1,6.7
			c-1.1,3.6-2,8-2.8,12.3c-0.7,4.5-1.4,9-2.5,13.9c-0.6,2.8-1.1,5.9-1.5,8.7c0,1,0.1,2,0,3.2c0,1.2-0.5,2.3-0.6,3.8
			c-0.1,2.9-0.4,5.9-0.9,8.6c0.1,0.9-0.5,0.4-0.6,0.4c0,1.3-0.1,2.5-0.5,3.8c-0.2,0.3-0.6,0.1-0.7,0.4c-0.2,0.6,0,1.6-0.4,2.2
			c-0.4,0.3-0.6,0.1-0.7,0.4c-0.5,2.3,0.4,3.5,0.2,5.2c-0.1,2.3-1.5,3.9-1.5,6.5c0.2,0.9-1.2,0.1-1.4,0.9c-0.6,0-0.1,1.3-1,1.3
			c-6.4-5.7-7.4-16.5-7.4-28.3c0-3.8,0-7.5,0.1-11.3c0-1.3,0.1-2.9,0.1-4.8c0.6-13.1,2.3-25.2,5.2-36.9c2.1-8,4.8-15.7,7.5-23.5
			c1-2.5,2.1-5.2,2.5-7.7c0.2-1.6,0-2.5,0.2-2.9c0.2-0.6,2.1-1.3,3.1-0.7c0.7,0.1,1.5,0.1,2.3,0.4c2.6,0.7,4.4,3.2,6.2,3.5
			C33.2,213.4,32.6,215.4,34.2,216.3z"/>
		<path id="pti" d="M79.4,270.1c0,2-0.1,3.9-0.5,6c-0.4,1-1.2,2.5-1.5,3.5c-0.5,2.7-1,5.6-1.8,8.4c-0.5,1.4-1.1,2.7-1.4,3.9
			c-0.8,2.9-1.8,5.3-2.5,8c0,0.8,0,1.6,0,2.4c-0.5,1.6-0.8,3.8,0,5.6c0.7,1.2,3,3.9,6,3.1c-0.1,1-0.1,2.2-1,2.9
			c-0.1,0.1-1.1,0.1-1.2,0.1c-0.4,0.4-0.5,0.8-0.8,1.1c-2.2,0.3-5.4-1.1-7.4-2c-2.3-1.2-3.8-3.3-4.9-4.4c0.3-1.6-1.4-3.1-2-5.3
			c-0.1-1-0.3-2.2-0.3-3.4c-0.4-5.2,0-10.2,1.2-15c0.5-2.9,2.2-5.4,1.9-7.9c-0.4,1.2-1.4,1.8-2,2.6c-0.3,0.4-0.3,1.2-0.8,2
			c-0.1,0.1-0.8,0.3-0.8,0.8c-1.5,1.8-2.4,3.4-3.7,5.2c-1.1,1.2-1.9,2.6-3.1,3.7c-0.4,0.8-0.8,1.8-1.2,2.5c-0.3,0.3-1,0.8-1.4,1.6
			c-0.5,0.8-1.2,1.8-1.6,2.4c-0.7,0.5-2,0.8-2.5,1.8c-0.3,1.1-2.9,0-2,2c-1.1-1.1-3.1-1-4.9-1.4c-1.2-1.5-1.8-3.8-1.8-6.4
			c0-5.4,1.9-12.4,2.7-16.7c1.4-3.8,1.9-7.9,3.3-12.2c0.4-0.3,0.7-0.5,1.2-0.5c-0.1-1.5-1-2.9,0.3-3.3c1.6-0.7,7.9,1.1,8.6,1.9
			c0,0,0.3,1.1,0.3,1c0.1,1,0,2-0.8,3.7c-0.5,3.5-0.8,7.6-1.6,11.2c0.5,0.5,0.7-0.4,1-0.8c0.5-0.3,1-0.4,1.5-1c0,0-0.1-0.4-0.1-0.7
			c0-0.1,0.7,0,0.7-0.1c0.1-0.1,0.1-0.4,0.3-0.7c2.2-2.2,4.9-5.3,8.2-8.2c0.3-0.1,0.8-0.1,1.5-0.5c0.4-0.8,1.2-1.1,1.9-1.5
			c0-0.1,0-0.7,0.1-0.8c0.5-0.4,1.1-0.4,1.6-0.7c1.1-1,1.4-1.9,2.3-2.2c0.8-0.4,1.6,0.4,2.6,0.3c1.6,0.3,3-0.3,4.5,0
			c0.7,0.4,0.7,1.4,1.6,1.4C79.2,265.7,79.4,268,79.4,270.1z"/>
		<g>
			<path id="pti" d="M226.7,258.4c1.6,1.8,2,2.6,3.8,2.7c0.7,0,0.8,0.4,1.8,0.3c1-1.5,2.3-3.5,2.3-5.7c-4.1-1.2-9.9-4.1-9.9,0.8
				C224.7,256.9,225.5,257.5,226.7,258.4z"/>
			<path id="pti" d="M278.9,317.8c-0.7-0.8,0.1-0.8-0.5-1.5c-0.4-0.3-1.2-0.1-1.9-0.7l-0.1-0.4c-0.8-1.1-1.2-3.1-1.5-4.8
				c-0.7-4.6,0.7-9.4,1.5-12.9c0.4-2.2,0.5-4.2,1.2-5.9c0.1-0.1,0.8-0.7,0.8-0.8c0.8-2,1.6-4.8,2.2-6.9c1-1,1.6-2.5,2.4-3.7
				c-0.8-0.5-2-1-1.6-2.9c-0.5-0.3-0.8-0.5-1.4-1c-0.8-1.2-0.8-1.8-1.9-2.3c0,0-0.1-0.5-0.4-0.5c-0.3-0.4-1-0.5-1.4-0.5
				c-0.7-0.7-1.5-1.1-2.3-1.6c-1.5-0.7-3.8-0.1-4.8-1.9c1.5-2.9,3.3-5.3,4.2-8.2c1.6-4.5,3-8.4,2.6-14.7c-0.1,0-0.3-0.4-0.3-0.8
				c-1.4-1.6-3.5-2.4-5.2-4.1c-0.3-0.5-0.5-0.3-0.7-0.3c-0.5,0.7-1.2,0.5-1.6,0.8c-1.2,0.8-4.1,3.8-4.9,4.8
				c-1.2,1.2-2.3,2.3-2.6,3.3c0,0.1-0.5,0.4-0.7,0.5c-0.1,0,0.1,0.3,0,0.7c0,0-0.7-0.3-0.8,0c0,0.1,0.1,0.5,0,0.8
				c0,0.1-0.7,0.1-0.8,0.3c-0.7,1.4-1.2,2.7-1.5,3.8c-0.7,1.6-1.9,6.7-1.5,9.1c0,0.1,0.8,1,0.8,1.1c0.7,2.2-0.1,0.7,0.8,2
				c0.7,0.5,1.4,1.1,1.8,1.6c-1,1.6-0.8,1.6-2.2,3.5c-1.9,2.3-2.2,2.4-3.3,3.5c-1.5,1.6-1.5,1.6-3.5,3.9c-0.8,1.2-6.3,6.8-8.6,8.8
				c-3.3,1.8-8.2,4.2-10.8,6c-3,2-6.1,2.5-9.8,3.1c-0.5-2.9,2-6,2.6-8.3c0.3-0.3,0.3-1,0.3-1.8c0.4-0.8,1.4-1.6,1.6-3
				c0.4-0.4,0.5-1.2,0.5-1.5c0.1-0.5,0.1-1,0.5-1.6c1.1-2.6,1-5,1.6-6.9c1-1.2,2-2.2,1.9-3.7c-2.2-2-6.7-4.4-10.1-2.6
				c-1.9,2.3-3.8,6.4-4.5,9c-0.1,0.8-0.8,1.2-0.7,1.6c-0.1,0.1-0.1,0.2-0.2,0.4c-6.7,4.8-21.8,11.2-25.1,11.6
				c-1.6,0.1,2.5-4.6,1.1-4.5c3.9-4.6,3.8-9.9,3.3-12.7c-0.4-1.2-1.1-2.9-1.6-3c-0.1-0.4-0.1-0.8-0.3-1l-3-1.8c-0.4,0-0.5-0.7-1.4-1
				c-1.5-1.4-3.5-1.6-5.7-2.3c-7.3-0.8-15,2-19.5,3.5c0-2,0.7-4.5,0.1-6.4c-0.1-1-1.5-1-1.4-1.8c-0.1-1.1-1,0.1-1.2-0.4
				c-0.1-1.9-1-2-0.7-3c-0.8-0.3-1.1-0.8-1.5-0.1c1-1-4.1-3-3.7-2.6c-1.9-1.9-4.5-2-7.4-1.5c1,2.6,1.1,4.9,1.2,7.6
				c0,0,0,0.1,0.1,0.4c-0.8,5.3-2.2,10.1-4.4,15.7c-0.6,1.9-1.3,3.8-1.9,5.7c-0.1,0.1-0.2,0.1-0.2,0.1c0.3,0-3.3,1.4-5.4,2.6
				l-3.4,0.7c-2,1-4.2,1.5-6.8,1.9c-2.2,0.7-4.5,1.3-6.7,1.6c-0.7-1.1-2.3-3-3.5-4h-0.1c-2.6-3-6.7-4.6-5.2-8.1
				c0.3-1.1,1.1-1.8,2.3-2.8c3.3-2.3,8.2-4.4,9.9-6.8c0.8-0.5,1.8-0.3,1.6-1.5c-0.7-0.5,0.1-1,0.1-2c-2.3-1.6-5.6-2.7-7.3-4.5
				c-0.8-0.5-1.5,0-1.6,0.1l-0.1-0.5c-0.7-0.1-2-0.3-2.9-0.3c-0.1,0,0.3,0.7,0,0.8c-0.5,1.4-1.9,1.4-2.9,2.7
				c-0.5,0.8-2.3,1.2-2.5,2.5c-0.5,0.7-0.7,1.6-1,2.5l-0.8-0.5c-0.5,0.5-1.1,1.8-1.2,2.2c-0.7,0.4-0.1-0.3-0.8-0.1
				c-0.1,0.7-0.7,1.4-1.1,1.8l-1.2,1.6l-2.2,1.9c-2.3,1.8-3.9,4.2-7.1,6.5c-1.9,1.4-2.3,1.8-4.9,3.7c0.3,1,2.2,2.9,4.9,2.2
				c1.4-0.4,2.7-1.8,3.9-2.5c1.9-1.2,2.3-1.8,3.1-2.5c2.4-2.4,2.9-2.3,4.1-3.7c0,0,0,1.5,1.8,3.9c0.1,0,2.3,3.1,2.5,3.1
				c1.1,2.6,2.6,2.7,4.4,5.4c-3.5,2-9.1,5.3-12.5,8.4c-1.5,1.6-3.4,2.6-4.2,4.6c-0.4,0.3-0.4,0.3-0.7,0.4c-0.1,0.1,0-0.3-0.1,0
				c-0.8,0.4-1.2,1.8-1.6,2.3c-0.3,0.5-0.5,1-0.5,1.6c0.7,1.8,3.1,2.7,4.6,3.9c1.8,0.7,2,1.2,3.5,1.6c3.3,0.3,6-0.4,7.9-1
				c3-1.2,5-2.7,7.3-3.5c0.8-1.1,2.5-2,3.5-3.4c0.8-0.8,1.9-1.9,2.6-2.6c0.4-0.3,0.5-0.7,0.7-0.8c0.5-0.7,0.7-1.5,0.8-2.2
				c0.5-2,1-2,0.5-4.1c0.3-0.3,5.7-3,5.9-2.9c3.1-0.4,6.4-1.8,8.2-2.9c1.6-0.9,1.8-0.8,2.2-0.9c-1.9,5.9-3.7,12-4.8,18.4
				c-3,11-5.4,22.9-5.7,35.7c0.1,4.5,0,9.5,1.1,12.7c0,1.6,0.5,3.4,1.4,5.3c3.1,7.6,13.1,15.3,13.1,15.3s-7.6-12.5-7.7-15.6
				c-0.3-2.3-0.8-3.5-1.2-5.6c0.5,0.1,0.4-0.7,0.5-1c0.1-0.5-0.1-0.8-0.4-0.1c0,0.1,0,0.4-0.3,0.3c0-0.1,0-0.8-0.3-0.8
				c0.3-5,0.1-10.8,1-17c0.3-0.8,0.8-1.6,1-2.5c0.1-1.2,0.1-3,0.3-4.1c0.3-0.5,0.5-1.4,0.7-2.6c0.5-1.5,0.8-2.5,1.5-3.5
				c0,0,0.1-0.8,0.3-1.5c0.8-3.1,1.5-4.9,2.9-7.5c0.1-0.5,0.3-1.4,0.8-2.3c0.3-0.3,0.7-2.2,1.2-1.5c-0.4,1-0.8,2.3-1.2,3
				c0,4.1-3.3,8.6-3,13.1c1-2.9,2-5.7,3-8.2c0.8-3,1.2-5.4,3.1-7.5c-0.5-2.3,1.2-2.5,1.2-4.9c0.8-0.3,1.5-0.8,2-1.5
				c0.3-0.5,0.4-1.2,1-1.6c2,0.4,2.5,1.6,3.5,2.6c1.6,0.7,3.1,0.8,4.8,0.8c3.1,0,6.3-0.8,8.7-1.6c1.4-0.3,3.4-0.8,5-1.9
				c2.9-1.5,1.6,0.8,4.8-0.8c0.3-0.3,2.2-0.7,2.5-0.7c0.3-0.1,2-0.8,2.6-1l2.3-0.8c2-0.7,0.8-0.4,3.3-1.4c3.4-1.1,4.6-1.1,6.9-2.5
				c1.2,0.3,4.5-1.8,6.4-2.5c0,0,6.4-3.1,7.3-3.9c0.7-0.5,2.4-1.6,3.5-2.5c-0.4,1.6-0.7,3.2-0.7,4.6c-0.1,3.3,1,6.5,2.4,7.9
				c1.2,1.2,3.5,2.3,6.1,3.3c2.5,1.1,4.4,1.5,6.3,1.5c1.8,0,3.4-0.4,5.9-1.1c1.4-0.7,1.4-1,1.8-1c1.2-0.4,2.2-0.5,2.9-0.7
				c0.1-0.1,0.8-1,1.2-1.5c0.7-0.3,1.1-0.5,1.5-0.7c2.3-1.2,3.2-2.9,4.3-3.9c2-1.2,3.3-2,4.9-3.3c3-2.3,3.9-5.1,6.2-7.1
				c0.6-0.9,3.2-4.7,4.4-7.1c0.6-0.7,1-1.2,1.2-1.4c2-2.5,1.2-1.6,3.3-4.4c1-0.7,1.1,1.1,2.4,1c1.1,0.8,2.6,0.8,3,2.3
				c-2.6,5.4-5,15.8-5,24.5c0,2.7,0.1,5.4,0.8,7.6c0.1,0.8,0.5,1.6,0.8,2.5c0.4,0.7,1,3.1,1.5,3.7c1.9,3.1,7.1,5.2,12.1,4.4
				c1.5-0.3,3.5-1.2,4.8-2.6C282.6,317.3,280.9,318,278.9,317.8z M103.2,307.1c0.7-1.5,2-1.9,3.7-2.7c1.6-1.1,3.4-3,6-3.5
				C111.3,304.6,107.4,305.9,103.2,307.1z M183.3,278.9c-1.2,1.5-1.6,2.2-3.3,3.3c-1.2,1.5-3.1,2.5-5.4,3.1
				c-2.3,1.4-4.9,2.3-6.7,3.9c-0.8,0-1.6,1.1-2.2,1.2c-0.1,0.3-0.7,0-0.8,0c-0.7,0.7-0.8,1.2-1.6,1.6c-0.3,0.4-1.6,0.4-2.5,0.7
				c-1.8,0.4-3.7,2-5.9,2.3c1.4-1.1,1.6-3.9,2.5-5.7c0,0,0.8-0.5,1.1-0.8c0-0.3-0.1-0.7,0-1c0-0.1,0.4-0.1,0.5-0.4
				c0.5-1,1.4-1.4,3-2.2c1.8-1.1,2.5-2,3.8-3.1l1.2-0.4l0.3-0.4c1.5-0.7,2.5-0.8,3.1-1.5c4.2-1.6,9.3-3.8,14-3.8
				C185,277.3,183.6,278.5,183.3,278.9z M268.7,255.9c-1.1,2.7-3,5.4-4.4,8.8c-1-4.5,3.1-6.7,3.8-10.3c0.3-0.3,1-0.1,1.1-0.7
				C269.5,254.4,269.1,255.4,268.7,255.9z"/>
		</g>
		<path id="pti" d="M393.8,281.9c0,0-3.7,1.6-3.8,1.8c0.3,0-3.3,1.4-5.4,2.6l-3.4,0.7c-2,1-4.2,1.5-6.8,1.9c-2.2,0.7-4.5,1.3-6.7,1.6
			c-0.7-1.1-2.3-3-3.5-4H364c-2.6-3-6.7-4.6-5.2-8.1c0.3-1.1,1.1-1.8,2.3-2.8c3.3-2.3,8.2-4.4,9.9-6.8c0.8-0.5,1.8-0.3,1.6-1.5
			c-0.7-0.5,0.1-1,0.1-2c-2.3-1.6-5.6-2.7-7.4-4.5c-0.8-0.5-1.5,0-1.6,0.1l-0.1-0.5c-0.7-0.1-2-0.3-2.9-0.3c-0.1,0,0.3,0.7,0,0.8
			c-0.5,1.4-1.9,1.4-2.9,2.7c-0.5,0.8-2.3,1.2-2.5,2.5c-0.5,0.7-0.7,1.6-1,2.5l-0.8-0.5c-0.5,0.5-1.1,1.8-1.2,2.2
			c-0.7,0.4-0.1-0.3-0.8-0.1c-0.1,0.7-0.7,1.4-1.1,1.8l-1.2,1.6l-2.2,1.9c-2.3,1.8-2,3.8-5.1,6.1c-1.9,1.4-4.8,5.1-10.8,8.9
			c-4,2.1-8.5,3.9-13,5c-3,0.5-6.9,1.4-9.8,1.2c-0.5-0.3-2.5-0.8-2.9-0.8c-4.6-0.5-3.7-6-3-7.4c1.2,0.1,2-1.1,3-1.5
			c0.1-0.4,0.8,0,1.2-0.4c1.4-0.5,2.3-1.9,2.9-2.2c0.3-0.3,1.2-0.5,1.6-0.8c0,0,3.4-2,3.7-2.5c1.6-1.4,3.8-2.3,5.2-3.5
			c0.1-0.5,1.6-1.4,1.6-1.8c1-1.2,2.2-1.9,3.5-3.5c0.3-1.2,1.6-2,1-4.6c-0.1-0.3-0.7-0.7-0.8-1.1c-0.4-1.5-4.5-3.9-6.7-4.6
			c-0.5,0-0.8,0.5-1.1,0.1c-0.5-0.1-0.7-1.2-1.5-1.4c-2.6-0.5-5.9-1.2-8.6,1c-1.2,1-2,1.5-3.4,2c-1.2,1.2-2.5,1.9-3.1,3
			c-2,2.2-4.1,4.1-4.9,5.9c-0.5,0.7-0.8,1.4-1,2c-0.3,0.4-1.1,0.8-1.5,1.4c-0.1,0.5-0.1,1.2-0.3,2.3c-0.5,1.6-3.8,7.3-1.6,9.1
			c-0.3,0.5-0.7,0.5-1.1,0.7c0.5,1-0.8,2.3-0.4,3.9c0.1,0.3,0.4,1.4,1,1.6c0.3,0.1,0.8,0,1.2,0.1c1.6,1,2.4,4.8,4.4,5.4
			c0.4,0.1,4.5,1.9,4.9,2c1.5,0.5,3.3,0.4,4.9,1.1c0.5,0,1,0.1,1.5,0.3c1.5,0.3,3.1,0.3,4.2,0c2.3,0,4.5-0.5,6.3-1.4
			c1.1,0,2.3-0.1,3.3-0.5c1.6-0.4,2.9-1.2,3.9-1.1c0.8-1.4,2-1,3.3-1.8c1-0.8,2.9-1.5,4.1-1.9c1.8-1.2,1.6-2,3.5-2.9
			c0.5-0.4,2.5-1.8,2.7-1.9c0.3-0.1,1.6-1.8,2.2-1.9c0-0.4,1.5-1.2,1.8-1.5c0.7-0.8,7-7.1,7.8-8.4c0,0,0.1-0.1,0.1-0.1
			c0,0,0-0.1,0-0.1c1.6-1.6,0.5-0.5,0,0.1c0,0.3,0.2,1.7,1.8,3.9c0.1,0,2.3,3.1,2.4,3.1c1.1,2.6,2.6,2.7,4.4,5.4
			c-3.5,2-9.1,5.3-12.5,8.4c-1.5,1.6-3.4,2.6-4.2,4.6c-0.4,0.3-0.4,0.3-0.7,0.4c-0.1,0.1,0-0.3-0.1,0c-0.8,0.4-1.2,1.8-1.6,2.3
			c-0.3,0.5-0.5,1-0.5,1.6c0.7,1.8,3.1,2.7,4.6,3.9c1.8,0.7,2,1.2,3.5,1.6c3.3,0.3,6-0.4,7.9-1c3-1.2,5-2.7,7.4-3.5
			c0.8-1.1,2.5-2,3.5-3.4c0.8-0.8,1.9-1.9,2.6-2.6c0.4-0.3,0.5-0.7,0.7-0.8c0.5-0.7,0.7-1.5,0.8-2.2c0.5-2,1-2,0.5-4.1
			c0.3-0.3,5.7-3,5.9-2.9c3.1-0.4,6.4-1.8,8.2-2.9c2.3-1.2,1.8-0.5,2.9-1.4c2-1.5,1.6-0.8,3.5-2.3c1.1-0.7,2-2.9,2.9-3.9
			C395,283.7,396.7,281.1,393.8,281.9z M316.4,269.7c0,0,0.1-0.4,1,0c0,0.1,0.3,1.1,0,1.8c-0.3,1-1.8,2.2-2.9,3
			c-3,2-5.7,4.9-8.7,6.5c0,0-0.7,0.3-0.7-0.3C308.3,276.6,312.1,272,316.4,269.7z M351.7,307.1c0.7-1.5,2-1.9,3.7-2.7
			c1.6-1.1,3.4-3,6-3.5C359.9,304.6,355.9,305.9,351.7,307.1z"/>
	</g>
	<g>
		<path id="pti" d="M156,360c-1.3,0.1-2.6,0.2-3.8,0.4c-0.1,0.2-1,0.4-1.2,0.6c0.6,0.2,1.8,0.4,2.4,0.6c1.3-0.3,2.6-0.7,3.9-1
			C156.9,360.2,156.5,359.9,156,360z"/>
		<path id="pti" d="M150.7,362.4c0.4-0.1,0.8-0.2,1.1-0.2c0.5-0.1,1.1-0.3,1.7-0.4c-0.6-0.2-1.9-0.4-2.4-0.6
			C150.7,361.5,151.1,361.9,150.7,362.4z"/>
		<path id="pti" d="M182.2,357.7c-0.8-2.6-1.3-1.4-1.6,0C181.1,357.6,181.7,357.5,182.2,357.7z"/>
		<path id="pti" d="M182.2,357.7c-0.5-0.2-1.1-0.1-1.6,0c0,0,0,0.1,0,0.1C181.1,357.7,181.7,357.6,182.2,357.7z"/>
		<path id="pti" d="M178.9,357.9C179,357.9,179,357.9,178.9,357.9C179,357.9,179,357.9,178.9,357.9z"/>
		<path id="pti" d="M154.2,363.7c-2,0.4-4.1,0.7-5.5,2.3c2.1,0.3,3.6-0.9,5.4-0.8c1.5,0,2.6-0.7,3.9-1.2c0.2-0.1,0.5-0.1,0.7-0.2
			c-0.7-0.2-1.4-0.5-2-0.8C156,363.3,155.1,363.6,154.2,363.7z"/>
		<path id="pti" d="M335.8,342.4c0.6-1.9-1.8-6.3-4.3-7.4c-1.3-0.5-2.5,0.4-4,0c-2.3-0.8-4.8-1.7-7.3-2c-2.8-0.4-5.7,0.5-8.6,0.5
			c-2.4,0.3-4.7,0.1-7.3,0.1c-3,0.1-6.1,0.1-9-0.1c-2.7-0.2-5.1-0.7-7.8-1.2c-1-0.2-2.5,0.4-3.9,0.3c-4-0.3-7.6-0.9-11.2-1.1
			c-4.6-0.3-9.3-0.7-14-1c-7.1-0.5-13.9-1-20.8-0.8c-2.2,0.3-5.1-1.3-7.2-0.7c-4.4,1.2-11.6,0.6-14.3,0.4
			c-1.5,0.2-10.4-0.2-11.4-0.4c-2.6-0.6-5.2-0.2-7.8-0.4c-1.3,1.4-5.1,0.8-6.9,0.8c-2.8-0.1-5.6-0.3-8.4-0.3
			c-5.9,0-11.6,1.1-17.6,1.1c-6.2-0.3-12.3,0.1-18.6,0.4c-1.3,0-5.4-0.8-6.6,0.4c-1.2,1.5-2.8,0.2-4.5,0.1c-0.6,0.2-0.9,0.7-1.5,0.8
			c-0.5-1.2-8.9,0.2-10.4,0.4c-4.8,0.2-9.3,1.2-13.9,1.8c-1.9,0.2-4-0.1-6.1,0c-1.8,0.3-3.6,0.9-5.4,1.1c-9.3,1.7-18.2,1.9-27,3.9
			c-4.2,0.9-8.3,2.5-12.8,2.2c-0.9-0.1-2.5-0.9-2.8,0.4c-0.2,0.4,0.7,6.1,1.1,6.8c0.9,1.8,9.2,1.7,11.4,2.3c0.7-1.9,1.4-2.7,3.4-2.1
			c2.3,0.5,4.5-0.4,6.7-0.7c9.3-1.1,17.1-2.3,24.7-2.9c1.3-0.2,2.5-0.4,4-0.6c0.7,0.2,1.3,0.7,2,0.9c2.3,0.5,5.8-0.6,8.1-0.9
			c2.7-0.2,5.4-0.5,7.9-0.8c11.5-1.2,23-1.7,34.1-2.7c5.5-0.3,10.9-1,16.5-1.2c4.7-0.1,10-1.2,14.5,0c-1.8,0.8-10.1,5-12.3,4.4
			c-0.7,1-2.4,0.4-2.6,1.7c-0.8-1.1-1.8,0.8-2.7-0.2c-0.6,0.4,0.2,1.2-0.7,1.1c0.5-1.1-13,3.9-15.8,3.9c-1.5,0.3-3-0.1-4.4,0.7
			c-0.8,0.2-1.5,0.9-2.6,0.7c-1.9-0.3-12.1,3.3-13.8,3.7c-2.7,1-5.5,2.1-8.2,3c-2.4-0.2-5.3,1.7-7.3,2.6c-2.6,1.1-4.8,2.6-7.5,3.4
			c0-0.3,1.9-1.2,0.2-1.2c-0.9-0.1-1.8,0.5-2.4,1c-1.7,1.4-2.9,3.3-4.9,4.1c-1.2,0.8-1.2,2.1-2.3,3.1c-0.8,0.7-1.4,0.6-1.8,1.8
			c-0.8,2.3-3.3,2.4-2.6,5.6c0.9,4.2,4.9,5.3,9.1,5.6c2.1,0.2,4.3,0.2,5.9,0.3c2.1,0.2,4.1,0.5,6.4,0.2c1.7-0.3,3.2-0.7,4.8-0.5
			c1.3,0.2,1.8,0.3,3.1-0.2c1.2-0.4,2.3,0.8,3.7,0.4c0,0.6-0.8,0.2-0.8,0.7c2.3,1.1,4.3-0.1,6.5-0.3c1.2-0.1,2.4,0.2,3.4,0.2
			c1,0.1,2.7-0.2,3.7-0.3c1.5-0.2,2.5,0.3,4,0.4c3.2-0.5,6.2-0.1,9.4-0.6c3.1-0.2,5.9-0.2,8.8-0.2c6.1,0,12-0.2,18-0.5
			c6.2-0.1,12.5-1.2,18.8-1.6c5.7-0.3,11-0.2,16.3-0.4c12.8-0.1,25.6-1.2,38.5-1.6c5.5,0,11.8,0.4,17.3-1c1.4-0.3,3.6-1.2,5-0.8
			c1.1,0.7,1.9,0.1,3.1-0.2c0.6-0.1,7-0.5,9.4-1.1c0.1,0.2,0.3,0.3,0.6,0.5c0.3-0.1,0.5-0.3,0.6-0.4c1.8,0.1,3.9-0.3,5.7-0.3
			c2.4,0.2,5.6,0.7,7.7,0c1.7-0.5,3.3-0.1,4.8-0.5c0.7-0.1,0.5-1.1,1.4-0.5c0.3,0.2,0.4,0.2,0.9-0.4c0.3-0.3,0.8-0.4,1.2-0.4
			c0,0.3-0.2,0.6-0.2,1c0.9-0.1,1.3-0.9,2.2-1.2c0,0.3,0,0.6-0.1,0.7c2.5-1.2,5.9,0.6,8.1-1.2c-2.4-0.2-4.7-0.3-7.1-0.5
			c-4.7-0.3-9.4-0.7-14.3-1.1c-7.1-0.5-14.3-0.9-21.4-1c-3.5-0.1-7,0.2-10.5,0.3c-2.2,0.1-6.3-1.4-8.3-0.5c-3.2,1.4-7,0.8-10.3,0.6
			c-3.1-0.1-6.4,0.7-9.5,0.6c-14.2-0.2-28.5,2.2-42.5,3.5c-7.2,0.5-14.3,1-21.3,2c-3.3,0.4-6.7,0.8-10.2,1.2
			c-1.6,0.2-3.4,0.2-5.1,0.5c-1.5,0.2-2.4-0.2-3.8-0.3c-1,1.3-4.2,0.7-5.5,0.6c-1.9,0-3.6,0.5-5.5,0.8c-1.7,0.3-3.5-0.3-5.2,0.1
			c-1.3,0-3.2,1.1-4,0c-0.3,0.6-0.1,0.7-0.7,0.8c-0.4-0.5,0.2-1.2-0.8-0.8c-0.6,0.3-1.7,0.5-2.2,1c0.2-2.7-11-0.2-12.6-0.3
			c-3.1-0.2-6.7,0-10.1-0.3c-1.9-0.1-4-0.3-5.9-1c-1.7-0.4-5.2-2-3.1-4.2c1.4-1.2,2.7-2.9,4.6-3.5c2.2,0.2,3.7-1.5,6-1.5
			c-0.2,0.6,2.3-1.1,2.2-0.5c3.8-0.6,5.3-1.1,9.1-2c0.9-0.2,1.5-0.9,2.6-0.8c0.9-0.1,1.9,0,2.8-0.2c1.7-0.8,3.1-2,4.7-2.8
			c-0.8-0.8-2.2,1.2-2.8,0.2c2.7-0.7,5.4-1.3,8.1-1.9c2.3-2.8,7.4-5.5,8.7-4.6c1.5-0.3,5.3-1.8,6.8-2c-0.7,0.8-2.8,1.6-4.7,1.9
			c-0.1,0.3-0.3,0.5-0.5,0.9c1.2-0.3,2.5-0.3,3.8-0.4c0.5-0.1,0.9,0.2,1.3,0.7c1.1-0.3,2.2-0.5,3.4-0.6c2.7-0.4,5.4-0.8,8.1-1.6
			c0.9,0.5-1,1,1.3,0.7c1.8-0.5,3-0.2,4.5-1c0.8-0.4,2.7-0.8,3.4-0.3c0.3,0.1,0.6,0.1,0.9,0.1c0,0,0,0,0,0c0.5,0,1.1-0.1,1.6-0.2
			c0.3-1.4,0.8-2.6,1.6,0c0.5-0.1,0.1-1.2,0.5-1.1c3-0.8,6.9,0.7,8.4-1.8c0.3,1.5,2.1,0.3,3.6,0.9c-0.5,0.3-0.5,0.7-0.1,1
			c1.4-0.9,3.5,1,4.5-1.3c-1-0.8-2.6,0.8-3.6,0.2c0.8-1.1,2.3-1.2,3.5-1.1c1.2-0.1,2-0.9,3-1c3.6-0.5,7.3-0.9,11.1-1.4
			c3.6-0.6,7.5-0.6,11.1-1.3c1.2-0.2,2.4-0.6,3.7,0c-0.1,0,1.8,0.3,1.6,0.1c0.4,0.5-4.4,0.9-4.8,0.8c-1.3,0.2-2.8,1.4-4.1,1.8
			c-0.1-0.2-0.6-0.3-0.7-0.5c-0.3,0.3-0.8,0.4-1.2,0.7c-0.7,0.1-1.6,0-2.4,0.1c-2.1,0-4.3,0.6-6.4,1c-0.2,0.2-0.1,0.4,0.1,0.4
			c0.5-0.1,1.1-0.2,1.6-0.3c3.5-0.6,6.1-0.3,9.5-0.8c1.5-0.2,2.8-1.6,4.3-1.8c1.3-0.2,2.5-0.1,4-0.3c-0.9,0.7-2.8,0.2-3.2,1.5
			c2.5-0.1,4.9-0.5,7.5-0.6c1-0.1,4.1,0.5,3.9-1.2c0.1-1,1.8-0.5,2.1,0.2c0.4,0.8,3.4,0.1,4.1,0.2c2.1,0,4.3,0,6.2-0.3
			c1.5-0.2,2.3-2.8,3.6-2.8c3.1,0.7,6.2,0.2,9.3,0.4c1.2-0.1,2.1-0.7,3.5-0.8c1.2,0.1,2.4,0.2,3.9-0.2c2.5-0.1,3.9-3.1,6.4-1.9
			c2.1,1.2,4.9,0.1,7.3-0.1c3.4,0.1,7,0.1,10.4,0.2c7.1,0.2,14.2,0.6,21.3,1c3.1,0.1,6.5-0.1,9.8,0c3.1,0.2,9.8,0,11.6-1.1
			C337.6,344.9,336.1,344.1,335.8,342.4z M124.4,367.2c-0.9,0.4-1.7,1.4-3.1,1.3c-0.5-1.2,1.3-1.1,3.4-1.8c1.1-0.5,1.9-1,3.3-0.8
			C127.1,366.8,125.5,366.6,124.4,367.2z M165.5,356.9c-1.5,0.2-2.8-0.1-4.2,0c-1.3,0.2-2.3,1.3-3.8,0.9c1-1.9,4.5-0.7,5.7-2.5
			c0.3,0,0.2,0.6,0.2,0.8c2.7-0.4,5.4-0.9,8.2-1C170.9,356.6,167,356.6,165.5,356.9z M204.2,347c0.3-0.4-0.7-0.9,0.1-0.9
			c1.2-0.5,1.3,1,2.6,0.8c-1.4,2.3-5.1,0.8-7,1.1C201.1,347.1,202.7,347.6,204.2,347z M183.8,353.5c-0.6,0-0.5-0.9-1.3-0.2
			c-0.5,0.4-0.6,0.5-0.9,0.8c-1.4,0.5-2.7,0-4,0.4c-0.6,0.1-2,0.9-2.8,0.4c0.8-1.4,2.9-1.3,4.6-1.7c2.5-0.4,5.4-0.5,8-0.3
			C186.2,353.1,185.1,353.9,183.8,353.5z M219.6,348.9c-3.7,0.2-7.2,0.5-10.8,1.7c-3.5,0.9-7.3,0.9-11.1,1.7c-1.9,0.3-3.7,0-5.8,0.3
			c-1.2,0.1-2.4,0.4-3.7,0.3c-1.6-0.6,0.8-0.2,0.1-1l-0.9-0.1c0.8-1,3.5-0.6,4.6-0.5c1.2-0.1,2.3-1,3.3-0.9c0.6,0.2,1.2,0.1,1.8,0
			c0,0.6-0.3,0.4-0.1,1c1.7-0.3,4.3,0.2,4-1.5c8.6-1.7,17.4-2.1,25.8-2.7C226.7,349.1,220.6,349,219.6,348.9z M214.9,346.3
			c0,0,2.1-0.4,7.6-1.1c0.1-1-0.8-0.7-1.3-0.5c1-1,3.6-0.8,4.9-0.7c-0.9,0.5-2.7,0-2.9,1.1c1.1,0.5,2.8-0.4,4.4,0
			C222.4,345.7,214.9,346.5,214.9,346.3z M233.8,347c-0.3,0.3-0.6,0.4-0.9,0.7c-1.6,0.2-3.2-0.7-4.7-0.3c1.3-1.5,5.5-1.7,7.4-1.5
			c2.5,0,5.2-0.2,7.6-0.6C243.4,347.2,234.9,346.2,233.8,347z M252.5,349.1c0.1-1.3,1.7-0.6,2.4-0.6c1.8-0.3,3.8-0.6,5.7-0.5
			C258.6,349.2,255.1,348.4,252.5,349.1z"/>
		<path id="pti" d="M206.9,356.1c1,0.2,1.3,0,2-0.4c0.5,0,0.2-0.1,0-0.2c-0.6,0.1-1.1,0.2-1.7,0.3C207,355.8,206.9,355.9,206.9,356.1z"/>
		<path id="pti" d="M128.9,370.7c2.8,0.8,4.8-2.2,7.4-2.3c2.5,0,5.6-1.1,8.1-1.9c-1.7,0.2-2.7,0-3.1-0.4c-1.5,0.5-2.9,1.1-4.3,1.5
			C134.3,368.2,131,368.3,128.9,370.7z"/>
		<path id="pti" d="M141.4,366.1c2.3-0.8,4.7-1.6,6.9-1.3c0.9-0.9,1.7-1.7,2.3-2.5c-1.4-1-5.8,1.2-8.7,1.8C141.3,365,141,365.7,141.4,366.1z"
			/>
		<path id="pti" d="M178.2,359.9c-1.6,0.1-3,0.9-4.5,1.5c0.3-0.1,0.7-0.1,1-0.2c1.1-0.3,2.1-0.5,3.2-0.6c0.9-0.5,1.9-1.1,2.8-1.6
			C178.8,359,177.4,359,178.2,359.9z"/>
		<path id="pti" d="M192.7,357.2C192.7,357.3,192.7,357.4,192.7,357.2c-1.8,0.4-4.5,0.7-6.4,0.7c-1.4,0.3-1.6,0.7-2.5,1.3
			c2.5-0.3,5-0.5,7.4-1.1c1-0.3,1.9-0.5,2.8-0.8C193.6,357.1,193.2,357.1,192.7,357.2z"/>
		<path id="pti" d="M208.4,354.5c-0.7,0.1-2.2-0.3-2.6,0.7c0,0.2,0.2,0.2,0.4,0.2c0.4-0.1,0.8-0.2,1.2-0.2C207.8,355,208.4,355,208.4,354.5z"
			/>
		<path id="pti" d="M159.5,362.4c-1.2,0-2.2,0.5-2.7,0.7c0.7,0.3,1.4,0.5,2,0.8c0.1,0,0.3-0.1,0.4-0.1C158.9,363.4,159.7,362.9,159.5,362.4z"
			/>
		<path id="pti" d="M203.6,355.9c0-0.1-0.2-0.2-0.3-0.2C201.9,355.9,202.1,356,203.6,355.9z"/>
		<path id="pti" d="M164.5,361.5c0.2-0.1,2-0.7,3-1.1c-1.9-0.1-5,0.4-6.2,1.4c0.2,0.1,0.4,0.1,0.6,0.2C163,362.1,163.3,361.6,164.5,361.5z"/>
		<path id="pti" d="M168.3,360.2c0,0-0.3,0.1-0.8,0.3c0.2,0,0.4,0,0.6,0.1C168.2,360.4,168.2,360.2,168.3,360.2z"/>
		<path id="pti" d="M168.7,360.8C168.7,360.7,168.8,360.7,168.7,360.8c-0.1-0.2-0.3-0.2-0.6-0.3c0,0.1,0,0.3,0,0.4
			C168.3,360.9,168.5,360.8,168.7,360.8z"/>
		<path id="pti" d="M161,362.3c1.6,0.3,3.2-0.5,4.8-0.8c1-0.4,2.3,0.3,3-0.7c-0.2,0-0.4,0.1-0.6,0.1c0-0.1,0-0.2,0-0.4
			c-0.2,0-0.4-0.1-0.6-0.1c-1,0.4-2.8,1-3,1.1c-1.2,0.1-1.5,0.6-2.6,0.6c-0.2-0.1-0.4-0.2-0.6-0.2C161.2,362,161,362.2,161,362.3z"
			/>
	</g>
</g>
<g>
	<path id="pti" d="M268,159.8c0-2.7,1.4-5.1,2.2-7.9c0.3-1.2,0.7-2.5,1.2-3.9c0.8-2.8,1.2-5.6,1.7-8.3c0.3-1.1,1-2.5,1.4-3.5
		c0.4-2,0.5-3.9,0.5-5.9c0-2-0.1-4.3-0.4-6.4c-0.9,0-0.9-0.9-1.6-1.3c-1.5-0.3-2.8,0.3-4.4,0c-0.9,0.1-1.7-0.7-2.5-0.3
		c-0.9,0.3-1.2,1.2-2.3,2.1c-0.5,0.3-1.1,0.3-1.6,0.7c-0.1,0.1-0.1,0.7-0.1,0.8c-0.7,0.4-1.5,0.7-1.9,1.5c-0.7,0.4-1.2,0.4-1.5,0.5
		c-3.2,2.8-5.9,5.9-8,8c-0.1,0.3-0.1,0.5-0.3,0.7c0,0.1-0.7,0-0.7,0.1c0,0.3,0.1,0.7,0.1,0.7c-0.5,0.5-0.9,0.7-1.5,0.9
		c-0.3,0.4-0.4,1.3-0.9,0.8c0.8-3.5,1.1-7.5,1.6-11c0.8-1.6,0.9-2.7,0.8-3.6c0,0.1-0.3-0.9-0.3-0.9c-0.7-0.8-6.8-2.5-8.4-1.9
		c-1.2,0.4-0.4,1.7-0.3,3.2c-0.5,0-0.8,0.3-1.2,0.5c-1.3,4.3-1.9,8.3-3.2,12c-0.2,1.2-0.5,2.5-0.8,4c-0.7,0.4-1.2,0.7-1.6,0.8
		c-1.1,1.1-2.3,1.2-2.9,1.5c-0.1,0.1,0,0.8-0.3,0.8c-1.5,0.8-2.9,1.7-3.7,2c-0.8,0.5-1.7,0.9-2.4,1.3c-1.1,1.1-2,1.5-3.5,2.1
		c-3.2,1.7-8,4.1-10.6,5.9c-2.9,2-6,2.4-9.6,3.1c-0.5-2.8,2-5.9,2.5-8.2c0.3-0.3,0.3-0.9,0.3-1.7c0.4-0.8,1.3-1.6,1.6-2.9
		c0.4-0.4,0.5-1.2,0.5-1.5c0.1-0.5,0.1-0.9,0.5-1.6c1.1-2.5,0.9-4.9,1.6-6.8c0.9-1.2,2-2.1,1.9-3.6c-2.1-2-6.6-4.3-9.9-2.5
		c-1.9,2.3-3.7,6.3-4.4,8.8c-0.1,0.7-0.7,1.1-0.7,1.5c-0.3,0.2-0.7,0.4-1.1,0.7c-2.8,2.5-9.6,8.6-12.4,11c-0.4,0.1-0.7,0.4-1.1,0.5
		c-0.3,0.4-0.4,1.1-0.8,1.3c-2,1.7-2.1,1.9-5.2,3.9c-3.9,2-6.4,4.3-11.1,2.4c-1.1-1.5-1.6-3.7-1.6-5.7c0-3.5,1.1-7,1.9-9.4
		c0.4-1.1,0.8-2.4,1.2-3.3c2.3-5.3,5.9-10.3,5.2-15.6c-1.9-2.9-5.8-5.1-10.8-4.1c-1.5,1.2-1.6,3.6-2.9,4.7c-2.4-0.7-3.6-2.5-6.3-2.7
		c-1.2,0.9-2.9,1.3-4.1,2c-1.5,0.8-2.4,2.3-4,2.4c-1.1-0.4-7.9,5.5-7.9,5.5c-3.3,3.2-5.3,7.9-8,12.3c-0.1,1.1,0.7,1.1,0.4,2.1
		c-1.2,0.1-0.5,2.5-1.2,3.3c1.3,2.4,2,4,4.4,5.2c2.4,0.9,5.7,2.1,8,1.9c3.2-0.5,7.1-5.8,8.4-7.8c0.7-0.5,1.2-2,2.1-1.1
		c0.5,12.2,5.8,15.4,18.5,15.4c3.1-0.3,8.6-0.7,13.6-4.7c0.1-0.1,0.1-0.5,0.3-0.8c0.4-0.3,1.1-0.1,1.3-0.3c0.7-0.7,0.9-0.8,1.6-1.3
		c0.7-0.4,1.3-1.2,2.1-1.6c0.5-0.3,1.1-1.3,1.6-1.9c1.8-1.3,4.2-3.8,5.6-5.7c-0.3,1.4-0.5,2.7-0.5,3.9c-0.1,3.2,0.9,6.4,2.4,7.8
		c1.2,1.2,3.5,2.3,6,3.2c2.4,1.1,4.3,1.5,6.2,1.5c1.7,0,3.3-0.4,5.8-1.1c1.3-0.7,1.3-0.9,1.7-0.9c1.2-0.4,2.1-0.5,2.8-0.7
		c0.1-0.1,0.8-0.9,1.2-1.5c0.7-0.3,1.1-0.5,1.5-0.7c2.3-1.2,3.9-2.3,4.9-3.2c2-1.2,3.2-2,4.8-3.2c1.5-1.1,3-2.3,4.5-3.4
		c-0.1,1.1-0.2,2.2-0.2,3.2c0,2.5,0.5,4.8,1.7,6.3c1.7,0.4,3.7,0.3,4.8,1.3c-0.8-2,1.7-0.9,2-2c0.4-0.9,1.7-1.2,2.4-1.7
		c0.4-0.7,1.1-1.6,1.6-2.4c0.4-0.8,1.1-1.3,1.3-1.6c0.4-0.7,0.8-1.6,1.2-2.4c1.2-1.1,2-2.4,3.1-3.6c1.2-1.7,2.1-3.3,3.6-5.1
		c0-0.5,0.7-0.7,0.8-0.8c0.5-0.8,0.5-1.6,0.8-2c0.7-0.8,1.6-1.3,2-2.5c0.3,2.4-1.3,4.9-1.9,7.8c-1.2,4.7-1.6,9.6-1.2,14.7
		c0,1.2,0.1,2.4,0.3,3.3c0.7,2.1,2.3,3.6,2,5.2c1.1,1.1,2.5,3.1,4.8,4.3c1.9,0.9,5.1,2.3,7.2,2c0.3-0.3,0.4-0.7,0.8-1.1
		c0.1,0,1.1,0,1.2-0.1c0.8-0.7,0.8-1.9,0.9-2.8c-2.9,0.8-5-1.9-5.7-3.1c-0.8-1.7-0.8-3.9,0.2-5.5C268,161.4,268,160.6,268,159.8z
		 M152.2,133.3c-0.7,2.5-2.7,4.5-4.3,6.4c-2.4,2.7-5.2,6.7-9.4,8.2c3.7-5.7,7.4-11.4,13.1-15.1C152.5,132.8,152.5,133.3,152.2,133.3
		z"/>
	<path id="pti" d="M321.2,91.7c-1.1,2.7-2.4,5.7-3.2,9c0.4,0.8,1.1,0.7,1.6,0.5c2.7,0.4,4,0.1,6.4,0.1c2.1,0.3,4.4,0.5,6.8,0.5
		c7.2,0.5,15.4,0.9,22.3,3.3c-0.8,0.4-0.5,0.5-0.4,1.2c-0.3,0.1-0.8,0.5-1.1,0.3c-0.1,0.7,0.4,0,0.3,0.5c-2.7,0.1-5.5-0.1-8.2,0.1
		c-1.3,0-2.7-0.1-3.9,0.1c-2,0.1-4.3,0.3-6.6,0c-3.1,0.3-5.8,0.7-8.6,0.9c-0.4,0.1-0.8,0.1-1.3,0c-0.4,0.3-0.8,0-1.2,0
		c-0.1,0-0.3,0.3-0.4,0.3c-0.8,0.3-1.6,0.5-2.3,0.5c-1.2-0.4-2.9,0.4-3.7,0.5c-1.5-0.3-2-0.1-2.5,0.4c-0.4,0.5-1.9,3.1-2.3,4.3
		c-0.3,0.8-0.5,1.2-0.8,2.1c-0.5,1.3-0.5,2.5-1.2,4.3c-0.3,1.1-0.8,1.5-0.7,2c-0.3,0,0,0.9,0.1,1.3c-0.5,0.8-1.1,2-1.2,3.3
		c-0.8,2.4-1.6,5.2-2.4,7.9c0,0.5-0.8,1.6-0.8,2c-0.1,1.3-0.4,2.9-0.7,3.9c-0.5,1.3-0.1,2.7-0.9,3.3c-0.1,0.9-0.1,1.7-0.4,2.9
		c-0.4,0.9-0.1,2.5-0.8,4c-0.1,0.3-0.5,0.8-0.5,0.9c0,0,0.3,0.1,0.1,0.5c0,0-0.4,0.1-0.4,0.3c-0.1-0.1,0,0.8,0,1.1
		c0,0.3-0.3-0.3-0.3,0c-0.5,1.2-0.5,3.5-0.8,4.3l-0.3,0.3c0,0.7,0,1.6,0.3,2.4c-0.3,4.9,0.5,9.4,2.4,12c0.1,0.7-0.1-0.1-0.1,0.5
		c1.1,1.2,1.6,2.8,3.6,2.5c1.3,0.3,2.8-0.4,3.6-1.5c0.4-0.3,0.3-1.1,1.1-1.6c0.7,0.9-0.4,1.7-0.4,2.3c-0.4,0.3-0.4,0.8-0.5,0.8
		c-0.1,0.3-0.8,0.8-1.3,1.1c-0.4,0.9-1.3,1.5-2.5,2.5c-0.8,0.5-1.2,1.1-2.8,1.3c-3.5,0.8-8-1.6-10.3-4c-0.5-0.7-0.4-0.9-1.2-2.3
		c0-0.9-0.8-2-1.6-2.7c-0.1-0.7-0.5-1.6-0.4-2.3c-0.4-0.9-0.5-2.1-0.9-3.1c0-1.6-0.7-3.9-0.8-5.9c-0.3-2-0.3-4-0.3-6
		c0-0.4-0.4-0.8-0.3-1.2c0-0.4,0.3-0.7,0.1-0.9c0.4-0.5,0.5-1.3,0.4-1.5c-0.3-0.7,0.4-3.9,0.8-5.5c0-0.8,0.5-1.5,0.4-2.3
		c0.5-1.1,0.1-4.1,0.7-4.9c0.1-0.5,0.7-1.6,0.7-2c0.7-2.4,0.9-3.5,1.6-5.1c-0.3,0.4-1.6,2.8-2.1,3.3c-0.4,0-0.7,0-0.8,0
		c0.1,0.3,0.1,0.5,0.1,0.7c-0.8,1.3-2,2.9-2.5,4.4c0-0.7,0.4-1.9,0.9-2.8c0-0.1,0.1-0.9,0.3-1.3c0.3-0.4,0.7-0.7,0.5-1.1
		c0.3-0.4,0.1-0.9,0.3-1.2c0-0.4,0.5-0.3,0.5-0.5c0.3-0.1-0.1-0.5,0-0.7c0.3-0.3,0.7-0.3,0.5-0.8c0.1-0.3,0.1-0.9,0.3-1.5
		c-0.1-0.3,0.3-0.5,0.3-1.1c0.3-0.4,0.3-0.7,0.3-0.9c0.1-0.3,0.5-0.5,0.5-0.9c0.1-0.5,0-0.8,0-1.2c0-0.1,0.4-0.4,0.5-1.2
		c0.4-0.7-0.1-1.3,0.3-1.7c0.3-0.3,0.8-0.8,0.8-1.3c0.1-0.8-0.1-1.1,0.3-1.9c0.3-0.7,0.9-0.7,1.1-1.1c0.1-0.1-0.1-0.5,0-0.9
		c0.1-0.1,0.4-0.1,0.4-0.3c0.4-0.5,0.1-1.1,0.1-1.5c0-0.1,0.4-0.5,0.7-0.7c-0.3-0.3,0-0.8,0.1-0.8c0.3-1.3,0.9-1.9,1.1-2.8
		c-0.1,0,0.9-0.3-1.7,0.4c-2.8,0.1-5.5,0.1-8,0.7c-3.6-0.1-7.2,0.3-9.6-0.7c-0.7,0-1.3-0.3-2.4-0.5c-1.6-0.8-2.9-1.2-4.1-2.7
		c-1.1-0.7-2.4-1.5-2.8-2.3c-0.4-0.3-0.4-0.9-0.4-1.3c1.9,0.4,3.7-0.3,5.2-0.8c3.2-1.3,7.1-1.9,10.7-2.7c6.4-0.9,12.2-1.5,19.7-1.3
		c1.9-0.1,0.5,0.1,1.1-0.3c0.5-0.1,0.4-0.8,0.8-1.5c0.1-0.8,0.7-1.1,1.2-1.5c0.1-0.3,0.1-0.8,0.3-1.1c0-0.1,0.7-0.5,0.8-0.8
		c-0.1-0.3-0.3-0.5-0.3-0.7c0.1-0.1,0.3-0.3,0.4-0.4c0.8-0.7,1.3-1.2,1.5-1.9c1.1-2,2.5-4.4,4.1-6.8c0.7-0.9,1.1-2.1,1.7-2.5
		c0.5-0.7,0.8-0.8,0.9-1.3c0.3-0.1,0.5-0.8,0.5-0.9c0-0.4,0.5-0.7,1.3-0.3c0.3,0,0.4-0.5,0.5-0.1c0.7,0,0.8-0.3,1.5-0.3
		c0.1,0,0.8,0.4,1.3,0.4c0.4,0.4,0.8,0.8,1.6,1.3c0,0,0.1,0,0.3,0c0,0.1,0,0.3,0,0.3c0.5,0.4,0.9,0.4,1.3,1.2
		C324.4,86.1,322.8,88.8,321.2,91.7z"/>
	<path id="pti" d="M189.9,90.1c-0.4,0.6-1,0.6-1.6,0.4c-0.6-0.3-1.2-0.9-1-1.7c0.2-0.8,1-0.9,1.7-0.9C189.9,88.1,190.8,88.9,189.9,90.1z
		 M183.9,109.3c0.9-0.8,2.5-0.7,3.3-0.5c0.3,0.1,0.8,0.7,0.8,0.9c0.7,1.4,0.4,2.6-0.6,3.4c-0.3,0-0.4,0.2-0.6,0.5
		c-0.6,0.1-1.6,0.1-2.3-0.2c-0.3,0-0.3-0.1-0.6-0.3c-0.3-0.8-1.2-0.9-1.3-2.2c0.3-0.1,0.3-0.6,0.5-0.7c0-0.1,0.2,0,0.2-0.2
		C183.3,109.8,183.8,109.6,183.9,109.3z M211.7,119.5c-0.7,0.1-2.5,0.2-3.1,0.3c-0.2-0.1-0.4-0.4-0.5-0.5c-0.6-0.3-1.5-0.3-1.7-0.4
		c-0.8-0.4-1.9-1.3-2.8-1.3c0.2-0.6,0-0.9-0.4-1.1c-0.3-0.9-0.8-0.4-1.4-0.6c-1.6-1.3-1-2.8-1.3-4.1c0-0.4-0.4-0.5-0.4-0.8
		s0.2-0.6,0.1-1.1c-0.1-0.4-0.3-0.8-0.1-1.1c-0.1-0.5-0.3,0.8-0.1,0.3c1.6-2.8-0.3-2.8-2.8-3.5c-1.5-0.6-2.5-1.1-4-1.3
		c0.6-1,2.1,0,3.2,0.4c1.4,0.3,2.7,0.9,3.8,1.4c0.7-0.7,0.2-1.2,0.6-1.4c-0.1-0.6,0.5-0.3,0.7-0.4c0.9-0.7,1.1-1.6,1.7-2.2
		c0.2-0.4,0.7-0.4,0.9-0.9c0.3,0,0.6-0.4,0.9-0.5c0.3-0.1,1.4-0.2,1.9-0.5c0.6-0.4,1.1-1.4,1.8-1.1c0.6-0.7-0.2-1.3,0.4-2.1
		c0.2,0.8-0.1,1.6,0.2,2.1c0.6,0.2,0.9,0.3,1.6,0.3c0.7-0.3,2.8,0.7,2.9,0.4c1.1-2.4,1-3.6,1.7-3.4c0.3-0.1-0.5,1.7-1.4,3.2
		c0.4,0.5,2.2,1.9,2.6,2.3c0.9,0.5,1.9,0.3,2.3,1c0.7,0.6,0.6,1.9,0.9,2.5c0.2,0.1,0.2,0.8,0.3,0.9c0,0,1.8,0.1,2.2,0
		c0.6,0.8-1.1,1.4-1.8,0.8c-0.3,0.8,0,1.6,0.3,2c0.5,0.2-0.1,2.4-0.2,3.1c-0.1,0.3-0.4,0.2-0.2,0.5c-0.3,0.7,0.3,2.2-0.5,1.9
		c-0.7-0.4-1.8,0.4-1.3,0.9c0.5,0.9,0.4,1.2-0.8,0.9c0,0-1.6,1.9-3.4,2C213.9,118.6,212.6,119.5,211.7,119.5z M194.6,111.6
		c-1.3,0.1-2.6,0.2-3.4-0.2c1.2-1.5,4.3-0.5,6.3-1C197.8,110.7,195.3,111.2,194.6,111.6z M189.8,122.4c-0.6,0.6-2.1,0.3-2.3-0.8
		c0.1-0.2,0.1-0.7,0.5-0.9C189.7,120.1,190.2,121.6,189.8,122.4z M224.8,111.4c0.1-0.3-0.1-1,0.7-1c0.7-0.2,1.4-0.1,1.2,0.6
		C226.6,112.5,224.8,112.3,224.8,111.4z M229.2,123.8c-0.1,0.6-0.1,0.9-0.5,1.2c-0.3,0.2-0.7,0.5-1,0.6c-0.2,0.1-1.2,0.2-1.8,0.1
		c-0.3,0.1-0.5-0.2-0.7-0.1c-0.3-0.1-0.5,0.2-0.8,0.2c-0.2-0.1-0.5-0.2-0.9-0.4c-0.6-0.3-1.6-1-1.6-1.6c-0.2-0.3,0-0.7,0-1
		c0-0.4,0-0.7,0.2-1.2c0.1-0.2,0.8-1,1-1.1c0.4-0.2,0.7-0.1,1.2-0.2c0.4,0,0.7-0.4,1.1-0.2c0.4,0.1,0.7,0.4,1.1,0.5c0,0,0,0,0.1,0
		c0.9,0.3,1.6,0.8,2,1.4c0.3,0.5,0.4,0.7,0.4,1.2C229.3,123.4,229.2,123.6,229.2,123.8z M228.5,112c-0.9-0.3-0.8-0.5-0.9-1
		C228.5,109.2,230.4,111.9,228.5,112z"/>
	<path id="pti" d="M148.2,97.5c0.1-1.2,0.2-2.4,0.2-2.9c-0.2-1.1-0.5-3.1-0.8-3.4c-0.4-0.6-0.9-0.6-1.4-1l-0.6-1.4c-1.4-1.5-2.7-2.9-4.3-4.2
		c0,0,0,0,0,0l0,0c-2.2-1.9-4.6-3.4-7.8-4.3c-4.8-1-8.5-1.9-12.5-2c-1.6-0.1-3.2-0.1-5.1,0.2l-7.1,0.6c-0.7,0.2-1.2,0.5-1.6,0.5
		l-5.5,1c-5.5,1.2-7.6,2.2-13.2,2.3c-0.4-2.2-0.4-3.4-0.9-4.7c-1-1.7-3.2-3.2-4.1-4.5c-0.5-0.6-0.5-1.6-1-2.1
		c-0.2-0.4-4.6-2.2-5.3-1.7c-0.9,1.6-1.6,3.7-2.4,5.9c-2.1,4.7-3.8,9.6-5.5,15c-1.1,2.6-1.2,3-3.7,4c-1.5,0.7-3,1.2-4.6,0.7
		c0.6,1.4,3.6,2.2,5.9,2.3c-3.4,11.2-6.3,24.1-8.5,37.1c-0.4,2.7-1.5,9-1.9,11.7c-0.1,2.3-0.8,4.8-0.9,7c-0.2,2.3-0.1,4.5,0,6.7
		c0.3,4,0.9,7.8,1.7,11.3l-0.1,1.4c0.3,0.6,1,1.7,1.4,2.5c0.5,0.9,1.3,1.9,1.5,2.6c0.9,1.3,2.5,3.6,4.4,3.9c1.4,0.2,2.9-0.3,3.4-1.6
		c0-0.7-0.6-2-1.1-3.1c-0.1-1.2-0.6-2.2-0.8-3.3c-0.1-1.2,0.4-2,0.5-3.8c0.1-2.6-0.1-5.4,0-8.2c0-1,0-2,0.1-3c0-0.4,0.5-1.1,0.5-1.5
		c0-0.8-0.4-1.4-0.3-1.9c0-1,0.1-1.8,0.3-2.7c0.3-0.4,0.9-0.8,0.9-1.3c0-0.5-0.5-0.9-0.5-1.5s0.8-1.9,1-2.7l1.2-3
		c0-0.1,0.2-0.5,0.3-1l0.1,0.1c0.2-0.6,0.3-1.1,0.4-1.7c0.2-0.3,0.5-0.7,0.8-1c0-0.1,0.1-0.1,0.1-0.3c0.2-0.7,0.2-1.3,0.4-2
		c0,0.4,0.1,0.7,0.4,1c0.3-0.1,0.5-0.1,0.8-0.1c0.3-0.1,0.5-0.2,1.1-0.2c0.5-0.1,0.9,0,1.5-0.1c0.2-0.1,0.4,0,0.6,0
		c0.5-0.1,1.1-0.2,1.7-0.2c0.7,0,1.5,0.1,2.2,0.1c2.7-0.8,5.3-1.7,7.3-1.6c-0.8,0.4-1.8,0.6-2.6,0.9c-0.4,0.1-0.9,0-1.5,0.2
		c-0.3,0.3-0.4,1-1.1,0.7c0.1-0.3,0.7-0.4,0.2-0.5c-0.3,0.3-0.8,0.2-0.4,0.5c-0.4,0.2-1.1,0.2-1.2,0.6c1.3,0.1,2.2-0.6,3.1-0.8
		c0.7-0.2,1.4-0.5,2.2-0.6c3.5-0.9,7-2,10.7-2.9c-0.4,0.2,0,0.7-0.2,0.9c-0.3,0.1-0.7,0.4-0.8,0.5c-0.8,0.4-1.4,0.7-2.1,1.1
		c-0.4,0.4-1.1,0.4-1.6,0.6c-0.4,0-0.8,0.5-1.2,0.5c-1.1,0.2-2,0.3-3,0.7c-0.8,0.1-1.5,0.3-1.9,0.6c-1.2,0.2-2.8,0.4-3.6,0.8
		c-1,0.4-2.8,0.1-4,0.5c-0.4,0-0.7,0.2-1,0.4c-0.5,0-0.9-0.2-1.3-0.1c-0.5,0.1-1.1,0.1-1.7,0.1c-0.1,0.3-0.4,0.4-0.7,0.4
		c-0.4,0.1-1.1,0-1.2,0.3c2.5,0.4,5-0.3,7.3-0.6c0.3-0.1,0.7,0,0.9,0c0.3,0,0.7-0.2,0.9-0.2c0.1,0,0.4,0.2,0.5,0.2
		c0.3,0,0.4-0.2,0.8-0.2c0.3-0.3,0.7,0.2,0.9,0c0.8-0.1,1.6-0.7,2.4-0.6c0.1,0,0.5,0,0.8,0c0.6-0.9,1.1-0.5,1.6-0.8
		c0.1,0,0.3,0.2,0.7,0.2c0.1,0,0.4-0.4,0.8-0.4c1.2-0.1,1.8-0.6,2.7-0.8c0.8-0.1,1.5,0.1,2.1,0c0.4-0.1,1-0.6,1.6-0.7
		c0.4-0.1,1.2-0.3,1.8-0.5c1.3-0.2,2.6-1.1,3.8-0.9c-0.7,0.4-1.9,0.7-2.5,1.1c-0.4,0.2-0.6,0.5-0.8,0.6c-0.7,0.4-1.6,0.3-2.4,0.4
		c-0.4,0.1-0.4,0.2-0.7,0.4c-0.1,0-0.5-0.2-0.7-0.2c-0.9,0-2.2,0.6-2.6,0.8c-0.8,0.5-1.6,0.6-2.5,1c1.5,0.2,2.4-0.7,3.7-0.9
		c0.3-0.1,0.5,0.3,0.7,0c0.1,0,0.7-0.1,0.9-0.2c1.9-0.4,3.5-0.8,4.9-1.4c0.7-0.2,1.4-0.6,1.9-0.7c0.3-0.1,0.5,0,0.9-0.1
		c0.3-0.1,0.7-0.4,0.8-0.4c0.8-0.2,1.5-0.5,2-0.4c0.5-0.2,0,0.4,0.4,0.3c0.4-1.1,1.7-1.4,2.9-1.7c0.7-0.2,0.8-0.6,1.4-1
		c0.5-0.2,1.1-0.4,1.6-0.7c0.7-0.2,1.1-0.8,1.6-0.9c0.8-0.4,2.2-0.8,2.5-1.4c0-0.1,0.2-0.4,0.2-0.9l2.3-1.1c1.9-1.2,4-2.1,6.8-3.7
		c0,0-0.1,0-0.1,0c2-1.1,4.5-2.5,7.6-4.5c0.4-0.2,0.3-0.7,0.4-0.8c0.8-0.6,1.8-1.1,2.8-1.7l1.8-2.3c1.7-1.3,3.6-2.6,4.5-4.3
		c0.4-0.2,0.4-0.8,0.6-1c1.1-2.7,3.2-4.1,4.3-6.8C147.5,104.2,149.3,101.5,148.2,97.5z M73.5,132C73.5,132,73.5,132,73.5,132
		C73.5,132,73.5,132.1,73.5,132C73.5,132.1,73.5,132.1,73.5,132z M77.3,137.7c-1.6,0.5-3.6,0.2-5.4,0.2c0.7-0.4,1.3-0.1,1.8-0.3
		c0.5,0,0.9-0.1,1.4-0.2c0.9,0.1,1.7,0.2,2.6,0.2C77.5,137.7,77.4,137.7,77.3,137.7z M102.6,136.7l-0.4,0c0.1-0.3,0.3-0.5,0.4-0.2
		L102.6,136.7z M106.6,134.9c-0.4,0.4-0.7,0.9-1.2,0.9c0.2-0.4,0.3-0.8,0.5-1.2c0.8,0,1.2-0.6,1.8-0.9c0.3,0.1,0.4,1,0.3,1.2
		C107.5,135.5,107,135.3,106.6,134.9z M136.2,102.3c-1,1.5-2,2.6-3.4,4c-2.2,2.4-5.1,4.3-8.5,6.6c-5.6,3.7-19.6,10-20.3,10.2
		c-1.9,0.8-3.9,1.5-6.9,2.7c-1.5,0.4-3.5,0.9-4.6,1.7c0.1,0.4,0.8-0.2,0.9,0c-1.8,0.6-3.5,1.2-5.5,1.8c-0.5,0.2-1.2,0.1-1.9,0.3
		c-0.1,0-0.3,0.2-0.5,0.4c-0.8,0.1-1.3,0.1-2.1,0.2c-1.1,0.1-1.9,0.5-2.8,0.6c-0.3,0-0.8-0.2-1.2-0.1c-1.6,0.1-3.6,0.5-5.2,0.3
		c0-0.1,0.8-2.7,1-3.9c0-0.6,0.5-1.9,0.7-2.9c0.2-1.3,1.1-2.9,1.7-4.2c0.2-1.1,0.2-2.1,0.5-2.9c0.4-0.7,0.8-1.1,1.5-1.7l1.4-2
		c0.1-0.4,0.3-1.2,0.9-1.6c0.4-0.9,1.2-1,1.9-1.6c0.5-0.1,0.7-1.2,0.9-1.6c0.3-0.4,0.3-0.7,0.6-1.4c0.5-1.2,0.6-2.4,0.3-3.8
		c-0.6-1.7,0.4-2.1,1.8-3.7c0.7-0.7,1.6-1.9,2.1-2.4c0.7-0.5,1.9-0.4,2.3-0.9c1-0.7,1.6-1.9,2.9-2.5c0.4-0.5,1.8-1.1,2.7-1.1
		c0.5-0.2,1.1-0.2,1.7-0.3c1.8-0.6,0.4-0.4,2.4-1c1.2-0.3,2.5-0.3,4.4-0.4l2.2-0.8c0.8-0.1,2,0,2.9-0.5l6.6-1.3
		c2.4,0,4.6,0.2,7.2,0.1c1.2-0.3,2.8,0.3,4,0.3c2.9-0.5,0.8-0.1,3.6,0.8c0.8,0,1.7,0.7,2.6,1c2.1,0.6,3,1.9,3.2,3.7
		C138.7,95.6,136.8,101.2,136.2,102.3z"/>
</g>
</svg>
